<?xml version="1.0" encoding="UTF-8" standalone="no"?>
<svg
   xmlns:dc="http://purl.org/dc/elements/1.1/"
   xmlns:cc="http://creativecommons.org/ns#"
   xmlns:rdf="http://www.w3.org/1999/02/22-rdf-syntax-ns#"
   xmlns:svg="http://www.w3.org/2000/svg"
   xmlns="http://www.w3.org/2000/svg"
   height="87.312286"
   width="220"
   id="svg25"
   version="1.1"
   viewBox="0 0 220 87.312286"
   data-v-29081953="">
  <metadata
     id="metadata29">
    <rdf:RDF>
      <cc:Work
         rdf:about="">
        <dc:format>image/svg+xml</dc:format>
        <dc:type
           rdf:resource="http://purl.org/dc/dcmitype/StillImage" />
        <dc:title></dc:title>
      </cc:Work>
    </rdf:RDF>
  </metadata>
  <!---->
  <defs
     id="defs2"
     data-v-29081953="">
    <!---->
  </defs>
  <defs
     id="defs6"
     data-v-29081953="">
    <!---->
  </defs>
  <g
     style="fill:#b5988f"
     transform="matrix(3.9617226,0,0,3.9617226,67.59252,11.787429)"
     id="ae0b56ae-0dcd-4ee4-b832-81140d3c7bad"
     data-v-29081953="">
    <path
       id="path8"
       d="m 4.84,5.42 v 0 0 Q 5.29,5.5 5.67,5.68 v 0 0 q 0.38,0.17 0.66,0.45 v 0 0 q 0.28,0.28 0.43,0.68 v 0 0 q 0.16,0.4 0.16,0.93 v 0 0 q 0,0.91 -0.38,1.46 v 0 0 Q 6.16,9.74 5.56,10.03 v 0 0 q -0.6,0.29 -1.37,0.38 v 0 0 Q 3.42,10.5 2.65,10.5 v 0 H 1.12 V 0.73 h 1.53 v 0 q 0.71,0 1.42,0.05 v 0 0 q 0.7,0.06 1.27,0.3 v 0 0 q 0.57,0.24 0.93,0.74 v 0 0 q 0.35,0.5 0.35,1.39 v 0 -0.03 0 q 0,0.56 -0.14,0.93 v 0 0 Q 6.33,4.48 6.09,4.73 v 0 0 Q 5.85,4.98 5.52,5.14 v 0 0 Q 5.19,5.29 4.84,5.42 Z M 2.1,1.58 v 0.06 3.34 h 1.3 v 0 q 0.38,0 0.79,-0.08 v 0 0 Q 4.59,4.82 4.92,4.61 v 0 0 Q 5.25,4.41 5.46,4.06 v 0 0 Q 5.67,3.71 5.67,3.18 v 0 0 q 0,-0.6 -0.26,-0.93 v 0 0 Q 5.15,1.93 4.78,1.79 v 0 0 Q 4.41,1.64 4,1.61 v 0 0 Q 3.6,1.58 3.29,1.58 v 0 z m 0,8.08 h 1.15 v 0 q 0.54,0 0.96,-0.08 v 0 0 Q 4.62,9.49 4.91,9.36 v 0 0 Q 5.21,9.23 5.4,9.05 v 0 0 Q 5.59,8.88 5.7,8.69 v 0 0 Q 5.96,8.27 5.95,7.73 v 0 0 q 0,-0.53 -0.2,-0.9 v 0 0 Q 5.56,6.47 5.22,6.25 v 0 0 Q 4.89,6.03 4.45,5.94 v 0 0 Q 4.02,5.85 3.54,5.85 v 0 H 2.1 Z m 9.65,-6.47 v 0 0 q 0.49,0 1.07,0.16 v 0 0 q 0.59,0.16 1.1,0.59 v 0 0 q 0.5,0.43 0.84,1.16 v 0 0 q 0.33,0.72 0.33,1.86 v 0 0 q 0,1.13 -0.33,1.85 v 0 0 q -0.34,0.72 -0.84,1.14 v 0 0 q -0.51,0.41 -1.1,0.57 v 0 0 q -0.58,0.16 -1.07,0.16 v 0 0 q -0.49,0 -1.07,-0.16 v 0 0 Q 10.09,10.36 9.6,9.95 v 0 0 Q 9.1,9.53 8.76,8.81 v 0 0 Q 8.43,8.09 8.43,6.96 v 0 0 q 0,-1.14 0.33,-1.86 v 0 0 Q 9.1,4.37 9.6,3.94 v 0 0 q 0.49,-0.43 1.08,-0.59 v 0 0 q 0.58,-0.16 1.07,-0.16 z m 0,6.74 v 0 0 q 1.19,-0.02 1.77,-0.82 v 0 0 q 0.59,-0.79 0.59,-2.15 v 0 0 q 0,-0.67 -0.15,-1.23 v 0 0 Q 13.82,5.18 13.52,4.78 v 0 0 q -0.3,-0.4 -0.74,-0.61 v 0 0 Q 12.33,3.95 11.75,3.95 v 0 0 q -0.59,0 -1.03,0.22 v 0 0 Q 10.28,4.38 9.98,4.78 v 0 0 Q 9.69,5.18 9.54,5.73 v 0 0 Q 9.39,6.29 9.39,6.96 v 0 0 q 0,0.67 0.15,1.22 v 0 0 q 0.15,0.56 0.44,0.94 v 0 0 q 0.3,0.39 0.74,0.6 v 0 0 q 0.44,0.21 1.03,0.21 z m 8.27,-6.74 v 0 0 q 0.66,0 1.11,0.21 v 0 0 q 0.44,0.21 0.72,0.62 v 0 0 q 0.28,0.4 0.41,1 v 0 0 q 0.13,0.59 0.13,1.35 v 0 4.13 H 21.5 v -4.07 0 q 0,-1.28 -0.35,-1.87 v 0 0 Q 20.8,3.96 19.92,3.95 v 0 0 q -0.56,0 -0.99,0.2 v 0 0 q -0.44,0.2 -0.74,0.59 v 0 0 q -0.3,0.38 -0.45,0.93 v 0 0 q -0.16,0.55 -0.16,1.2 v 0 3.63 H 16.7 V 3.36 h 0.76 l 0.12,1.2 v 0 q 0.34,-0.63 0.97,-1 v 0 0 q 0.63,-0.37 1.47,-0.37 z m 8.46,0.63 -0.33,0.7 v 0 Q 27.75,4.26 27.29,4.1 v 0 0 Q 26.82,3.95 26.4,3.95 v 0 0 q -0.6,0 -0.93,0.27 v 0 0 q -0.33,0.27 -0.33,0.86 v 0 0 q 0,0.28 0.13,0.48 v 0 0 q 0.13,0.21 0.34,0.36 v 0 0 q 0.21,0.16 0.48,0.28 v 0 0 q 0.27,0.11 0.58,0.21 v 0 0 q 0.36,0.13 0.74,0.28 v 0 0 q 0.37,0.16 0.67,0.4 v 0 0 q 0.3,0.25 0.49,0.61 v 0 0 q 0.19,0.36 0.19,0.91 v 0 0 q 0,0.53 -0.21,0.92 v 0 0 q -0.2,0.4 -0.53,0.65 v 0 0 q -0.33,0.25 -0.75,0.37 v 0 0 q -0.43,0.12 -0.89,0.12 v 0 0 q -0.68,0 -1.33,-0.23 v 0 0 Q 24.39,10.21 23.93,9.72 v 0 l 0.3,-0.76 v 0 q 0.48,0.45 1.04,0.7 v 0 0 q 0.56,0.25 1.13,0.25 v 0 0 q 0.62,0 0.99,-0.28 v 0 0 q 0.37,-0.29 0.39,-0.89 v 0 0 q 0,-0.33 -0.12,-0.55 v 0 0 Q 27.54,7.97 27.33,7.8 v 0 0 Q 27.12,7.64 26.83,7.52 v 0 0 Q 26.54,7.39 26.22,7.28 v 0 0 Q 25.86,7.15 25.49,7 V 7 7 Q 25.13,6.85 24.84,6.61 v 0 0 Q 24.54,6.37 24.37,6.02 v 0 0 Q 24.19,5.67 24.19,5.15 v 0 0 q 0,-0.52 0.19,-0.89 v 0 0 q 0.19,-0.38 0.51,-0.61 v 0 0 Q 25.2,3.42 25.61,3.3 v 0 0 q 0.42,-0.11 0.86,-0.11 v 0 0 q 0.54,0 1.06,0.17 v 0 0 q 0.53,0.17 0.95,0.46 z m 4.46,-0.63 v 0 0 q 0.13,0 0.35,0.02 v 0 0 q 0.23,0.01 0.49,0.09 v 0 0 q 0.25,0.07 0.52,0.24 v 0 0 q 0.27,0.16 0.48,0.44 v 0 0 q 0.22,0.28 0.36,0.7 v 0 0 q 0.14,0.43 0.14,1.05 v 0 4.77 H 34.52 L 34.44,9.35 v 0 q 0,0 -0.13,0.21 v 0 0 q -0.12,0.21 -0.39,0.46 v 0 0 q -0.26,0.26 -0.68,0.46 v 0 0 q -0.41,0.2 -1,0.2 v 0 0 q -1.16,0 -1.82,-0.56 v 0 0 Q 29.75,9.55 29.82,8.46 v 0 0 q 0.07,-1.24 1.16,-1.8 v 0 0 q 1.09,-0.56 3.4,-0.51 v 0 -0.44 0 Q 34.38,5 34.17,4.63 v 0 0 Q 33.96,4.27 33.68,4.12 v 0 0 Q 33.4,3.98 33.14,3.97 v 0 0 Q 32.87,3.96 32.76,3.96 v 0 0 q -0.52,0 -0.91,0.1 v 0 0 q -0.39,0.1 -0.66,0.21 v 0 0 q -0.32,0.14 -0.54,0.29 v 0 -0.88 0 q 0.33,-0.12 0.7,-0.24 v 0 0 q 0.32,-0.09 0.73,-0.17 v 0 0 Q 32.49,3.19 32.94,3.19 Z M 32.2,9.93 v 0 0 q 0.77,0 1.21,-0.28 v 0 0 q 0.44,-0.27 0.66,-0.68 v 0 0 q 0.22,-0.42 0.27,-0.88 v 0 0 q 0.04,-0.47 0.04,-0.88 v 0 -0.29 h -0.79 v 0 q -0.28,0 -0.76,0.04 v 0 0 Q 32.35,7.01 31.9,7.17 v 0 0 q -0.46,0.17 -0.78,0.47 v 0 0 q -0.33,0.3 -0.33,0.82 v 0 0 q 0,0.78 0.4,1.12 v 0 0 q 0.39,0.35 1.01,0.35 z M 38.32,3.36 V 10.5 H 37.44 V 3.36 Z m 0.15,-2.39 v 0 0 q 0,0.23 -0.17,0.4 v 0 0 q -0.16,0.17 -0.4,0.17 v 0 0 q -0.24,0 -0.42,-0.17 v 0 0 Q 37.3,1.2 37.3,0.97 v 0 0 q 0,-0.24 0.18,-0.42 v 0 0 Q 37.66,0.36 37.9,0.36 v 0 0 q 0.24,0 0.4,0.19 v 0 0 q 0.17,0.18 0.17,0.42 z" />
  </g>
  <defs
     id="defs11"
     data-v-29081953="">
    <!---->
  </defs>
  <g
     style="fill:#b5988f;stroke:none"
     transform="matrix(0.90536282,0,0,0.90536282,-15.753313,-1.6115413)"
     id="fcdd8618-11a5-4f1e-aab4-63ee6b584efc"
     data-v-29081953="">
    <path
       id="path13"
       d="m 50,28.651 c 4.166,0 7.221,-0.995 8.332,-1.936 l 6.072,-13.256 c 0,-3.433 -6.449,-6.216 -14.404,-6.216 -7.955,0 -14.403,2.783 -14.403,6.216 l 6.14,13.312 c 1.166,0.924 4.18,1.88 8.263,1.88 z" />
    <path
       id="path15"
       d="m 50,4.512 c 8.516,0 17.137,3.073 17.137,8.947 v 0.595 l -5.893,12.863 c 0.699,0.944 1.395,1.875 2.082,2.797 8.877,11.889 16.543,22.156 16.542,35.904 0,16.47 -13.399,29.868 -29.868,29.868 -16.469,0 -29.868,-13.398 -29.868,-29.868 0,-13.354 7.623,-23.66 16.449,-35.594 0.741,-1.002 1.49,-2.016 2.244,-3.043 l -5.96,-12.923 v -0.6 C 32.865,7.585 41.485,4.512 50,4.512 M 50,1.78 c -9.568,0 -19.866,3.655 -19.866,11.679 v 0.6 c 0,0.395 0.085,0.785 0.251,1.144 L 35.67,26.661 34.433,28.336 34.385,28.4 C 25.271,40.723 17.4,51.364 17.4,65.618 17.4,83.594 32.024,98.219 50,98.219 67.977,98.219 82.6,83.594 82.6,65.618 82.602,50.962 74.684,40.358 65.516,28.079 L 65.454,27.996 64.401,26.584 69.62,15.19 a 2.74,2.74 0 0 0 0.248,-1.138 V 13.457 C 69.867,5.435 59.568,1.78 50,1.78 Z" />
    <path
       id="path17"
       d="m 59,28.473 c -1.979,1.317 -5.499,1.999 -9,1.999 -3.455,0 -6.929,-0.665 -8.922,-1.948 -9.472,12.914 -18.215,23.537 -18.215,37.094 0,14.473 11.33,26.295 25.603,27.091 v -8.375 l -4.269,-3.98 v -4.109 l 5.8,5.009 5.805,-5.009 v 4.109 l -4.268,3.98 v 8.375 C 65.806,91.913 77.137,80.09 77.137,65.618 77.137,51.725 68.467,41.246 59,28.473 Z m -16.375,19.715 6.06,5.105 v 5.616 c 0,0 -4.735,-4.181 -5.663,-5.106 -0.926,-0.927 -0.397,-5.615 -0.397,-5.615 z m 5.988,28.441 c 0,0 -5.003,-4.443 -5.663,-5.104 -0.658,-0.66 -0.396,-5.616 -0.396,-5.616 l 6.06,5.104 z m 0.093,-8.774 c 0,0 -4.748,-4.189 -5.663,-5.104 -0.913,-0.914 -0.396,-5.615 -0.396,-5.615 l 6.06,5.104 z m -2.302,-21.044 3.594,-6.829 3.598,6.829 -3.598,2.908 z M 56.9,71.525 c -1.051,0.949 -5.662,5.104 -5.662,5.104 v -5.615 l 6.059,-5.104 c 0,-10e-4 0.656,4.666 -0.397,5.615 z m 0.094,-8.773 c -0.824,0.824 -5.662,5.104 -5.662,5.104 v -5.613 l 6.059,-5.104 c 0,-0.002 0.427,4.789 -0.397,5.613 z m -0.021,-8.949 c -0.938,0.848 -5.662,5.106 -5.662,5.106 v -5.616 l 6.06,-5.105 c -0.002,0 0.543,4.766 -0.398,5.615 z" />
  </g>
  <defs
     id="defs20"
     data-v-29081953="">
    <!---->
  </defs>
  <g
     style="fill:#b5988f"
     transform="matrix(0.58405507,0,0,0.58405507,71.10685,61.336049)"
     id="60b47ea4-246c-47bc-b6f4-84009f194c88"
     data-v-29081953="">
    <path
       id="path22"
       d="m 7.28,9.34 v 0 0 q 0.45,0 0.71,0.25 v 0 0 q 0.26,0.25 0.26,0.7 v 0 0 q 0,0.11 -0.02,0.23 v 0 0 q -0.01,0.12 -0.05,0.2 v 0 0 Q 7.99,10.7 7.77,10.68 v 0 0 Q 7.55,10.65 7.24,10.65 v 0 0 q -0.63,0 -1.26,0.12 v 0 0 q -0.63,0.11 -1.21,0.18 v 0 0 q -0.63,1.48 -1.03,2.78 v 0 0 q -0.41,1.31 -0.63,2.58 v 0 0 Q 2.63,16.2 2.27,15.9 v 0 0 Q 1.9,15.61 1.58,15.08 v 0 0 q 0.1,-0.23 0.24,-0.54 v 0 0 q 0.14,-0.32 0.34,-0.8 v 0 0 q 0.19,-0.48 0.47,-1.18 v 0 0 Q 2.9,11.87 3.28,10.91 v 0 0 Q 2.69,10.71 2.51,10.22 v 0 0 Q 2.58,10.15 2.9,10.06 v 0 0 Q 3.22,9.97 3.68,9.86 v 0 0 Q 3.89,9.31 4.05,8.88 v 0 0 Q 4.2,8.46 4.33,8.07 v 0 0 Q 4.45,7.69 4.56,7.32 v 0 0 q 0.1,-0.38 0.19,-0.8 v 0 H 4.68 v 0 q -0.54,0 -0.87,-0.25 v 0 0 Q 3.49,6.02 3.49,5.61 v 0 0 q 0,-0.11 0.03,-0.26 v 0 0 Q 3.56,5.19 3.61,5.08 v 0 0 q 0.27,0.04 0.53,0.06 v 0 0 Q 4.4,5.15 4.82,5.15 v 0 0 q 0.88,0 1.65,-0.05 v 0 0 Q 7.24,5.05 7.86,5 V 5 5 Q 8.48,4.94 8.93,4.89 v 0 0 Q 9.38,4.84 9.62,4.84 v 0 0 q 0.32,0 0.57,0.34 v 0 0 q 0.25,0.34 0.39,0.95 v 0 0 Q 10.14,6.09 9.86,6.08 v 0 0 Q 9.59,6.06 9.38,6.06 v 0 0 q -0.71,0 -1.31,0.07 v 0 0 Q 7.48,6.19 6.94,6.27 v 0 0 Q 6.86,6.4 6.75,6.59 v 0 0 q -0.1,0.2 -0.27,0.56 v 0 0 Q 6.31,7.5 6.05,8.08 v 0 0 Q 5.8,8.65 5.4,9.53 v 0 0 Q 5.95,9.45 6.45,9.39 v 0 0 Q 6.94,9.34 7.28,9.34 Z M 25.65,7.46 v 0 0 q 0,0.67 -0.3,1.27 v 0 0 q -0.3,0.59 -0.84,1.06 v 0 0 q -0.53,0.47 -1.24,0.79 v 0 0 q -0.72,0.33 -1.56,0.44 v 0 0 q 0.21,0.63 0.52,1.29 v 0 0 q 0.3,0.67 0.65,1.28 v 0 0 q 0.35,0.62 0.72,1.14 v 0 0 q 0.38,0.52 0.75,0.85 v 0 0 q -0.07,0.14 -0.21,0.28 v 0 0 q -0.13,0.14 -0.3,0.26 v 0 0 q -0.18,0.12 -0.37,0.2 v 0 0 q -0.19,0.07 -0.36,0.07 v 0 0 q -0.3,0 -0.58,-0.29 v 0 0 q -0.28,-0.29 -0.57,-0.93 v 0 0 q -0.29,-0.64 -0.6,-1.65 v 0 0 q -0.32,-1.02 -0.7,-2.45 v 0 0 q -0.15,0 -0.3,0 v 0 0 q -0.16,0 -0.24,-0.02 v 0 0 q -0.1,-0.06 -0.21,-0.2 v 0 0 q -0.38,0.81 -0.67,1.53 v 0 0 q -0.3,0.71 -0.53,1.38 v 0 0 q -0.23,0.66 -0.41,1.28 v 0 0 q -0.17,0.63 -0.3,1.27 v 0 0 Q 17.53,16.2 17.18,15.9 v 0 0 q -0.35,-0.29 -0.66,-0.82 v 0 0 q 0.06,-0.13 0.12,-0.25 v 0 0 Q 16.7,14.71 16.8,14.5 v 0 0 q 0.1,-0.22 0.25,-0.56 v 0 0 q 0.14,-0.33 0.39,-0.89 v 0 0 q 0.24,-0.56 0.58,-1.37 v 0 0 q 0.35,-0.82 0.84,-1.98 v 0 0 q 0.22,-0.52 0.38,-0.91 v 0 0 Q 19.4,8.4 19.53,8.04 v 0 0 q 0.13,-0.35 0.23,-0.71 v 0 0 q 0.11,-0.36 0.22,-0.82 v 0 0 q -0.65,0.22 -1.2,0.5 v 0 0 q -0.55,0.27 -0.92,0.58 v 0 0 Q 17.74,7.5 17.61,7.34 v 0 0 Q 17.47,7.17 17.36,6.96 v 0 0 q -0.11,-0.2 -0.2,-0.41 v 0 0 Q 17.08,6.34 17.07,6.17 v 0 0 q 0.42,-0.28 1.02,-0.51 v 0 0 q 0.61,-0.24 1.3,-0.42 v 0 0 q 0.69,-0.17 1.4,-0.27 v 0 0 q 0.71,-0.1 1.33,-0.1 v 0 0 q 1.68,0 2.6,0.69 v 0 0 q 0.93,0.7 0.93,1.9 z m -3.59,-1.44 0.17,0.27 v 0 q -0.1,0.12 -0.31,0.5 v 0 0 q -0.21,0.38 -0.48,0.9 v 0 0 q -0.27,0.53 -0.57,1.14 v 0 0 q -0.3,0.62 -0.58,1.22 v 0 0 q 1.05,0 1.93,-0.19 v 0 0 Q 23.1,9.66 23.74,9.3 v 0 0 q 0.65,-0.35 1.01,-0.84 v 0 0 Q 25.1,7.98 25.1,7.39 v 0 0 q 0,-0.7 -0.5,-1.07 v 0 0 Q 24.09,5.95 23.04,5.95 v 0 0 q -0.23,0 -0.47,0.02 v 0 0 q -0.24,0.02 -0.51,0.05 z m 16.41,3.19 v 0 0 q 0.46,0 0.72,0.25 v 0 0 q 0.26,0.26 0.26,0.7 v 0 0 q 0,0.12 -0.02,0.23 v 0 0 q -0.02,0.12 -0.05,0.21 v 0 0 q -0.18,-0.03 -0.4,-0.05 v 0 0 q -0.23,-0.02 -0.54,-0.02 v 0 0 q -0.6,0 -1.21,0.1 v 0 0 q -0.62,0.11 -1.18,0.18 v 0 0 q -0.32,0.74 -0.59,1.43 v 0 0 q -0.26,0.7 -0.45,1.27 v 0 0 q -0.19,0.57 -0.3,0.99 v 0 0 q -0.1,0.42 -0.12,0.63 v 0 0 q 1.14,-0.23 2.29,-0.4 v 0 0 q 1.16,-0.17 2.43,-0.25 v 0 0 q 0.16,0.23 0.26,0.51 v 0 0 q 0.11,0.28 0.11,0.61 v 0 0 q 0,0.08 0,0.18 v 0 0 q 0,0.1 -0.03,0.19 v 0 0 q -0.39,-0.01 -0.83,-0.02 v 0 0 q -0.43,0 -1.13,0 v 0 0 q -0.46,0 -0.88,0.02 v 0 0 q -0.41,0.02 -0.83,0.06 v 0 0 q -0.42,0.04 -0.89,0.11 v 0 0 q -0.47,0.07 -1.06,0.17 v 0 0 q -0.64,-0.25 -1.24,-1.23 v 0 0 q 0.24,-0.51 0.66,-1.54 v 0 0 q 0.43,-1.02 1.09,-2.75 v 0 0 q -0.63,-0.19 -0.83,-0.7 v 0 0 q 0.07,-0.07 0.41,-0.17 v 0 0 Q 34.45,9.81 34.94,9.7 v 0 0 Q 35.15,9.16 35.3,8.75 v 0 0 q 0.15,-0.41 0.26,-0.76 v 0 0 q 0.11,-0.36 0.2,-0.7 v 0 0 q 0.09,-0.35 0.18,-0.75 v 0 0 Q 35.45,6.51 35.17,6.27 v 0 0 Q 34.89,6.02 34.89,5.63 v 0 0 q 0,-0.11 0.03,-0.27 v 0 0 Q 34.96,5.21 35,5.1 v 0 0 q 0.28,0.04 0.54,0.05 v 0 0 q 0.26,0.02 0.68,0.02 v 0 0 q 0.88,0 1.65,-0.05 v 0 0 q 0.77,-0.05 1.39,-0.11 v 0 0 q 0.63,-0.05 1.07,-0.1 v 0 0 q 0.45,-0.05 0.69,-0.05 v 0 0 q 0.32,0 0.57,0.33 v 0 0 q 0.26,0.34 0.38,0.96 v 0 0 Q 41.54,6.1 41.27,6.09 v 0 0 Q 40.99,6.08 40.78,6.08 v 0 0 q -0.77,0 -1.4,0.07 v 0 0 q -0.64,0.08 -1.23,0.16 v 0 0 q -0.08,0.13 -0.19,0.33 v 0 0 q -0.1,0.19 -0.27,0.54 v 0 0 q -0.17,0.35 -0.42,0.88 v 0 0 Q 37.03,8.6 36.68,9.39 v 0 0 q 0.53,-0.08 1,-0.13 v 0 0 Q 38.15,9.21 38.47,9.21 Z M 57.34,5.74 v 0 0 q 0.05,0.24 0.07,0.33 v 0 0 q 0.02,0.09 0.02,0.24 v 0 0 q 0,0.47 -0.2,0.87 v 0 0 q -0.21,0.39 -0.56,0.56 v 0 0 Q 56.39,7.36 55.99,7.09 v 0 0 Q 55.58,6.82 55.1,6.64 v 0 0 q -0.49,-0.17 -1,-0.26 v 0 0 Q 53.58,6.3 53.09,6.3 v 0 0 q -0.49,0 -0.92,0.08 v 0 0 q -0.43,0.07 -0.76,0.21 v 0 0 Q 51.09,6.72 50.9,6.92 v 0 0 q -0.19,0.19 -0.19,0.44 v 0 0 q 0.04,0.31 0.38,0.63 v 0 0 q 0.33,0.31 0.82,0.61 v 0 0 Q 52.4,8.9 53,9.2 v 0 0 q 0.59,0.29 1.17,0.56 v 0 0 q 0.71,0.33 1.23,0.62 v 0 0 q 0.52,0.29 0.85,0.63 v 0 0 q 0.34,0.34 0.51,0.78 v 0 0 q 0.16,0.43 0.16,1.05 v 0 0 q 0,0.71 -0.23,1.34 v 0 0 q -0.24,0.62 -0.7,1.08 v 0 0 q -0.45,0.46 -1.1,0.72 v 0 0 q -0.64,0.26 -1.44,0.26 v 0 0 q -0.78,0 -1.69,-0.24 v 0 0 q -0.91,-0.24 -1.7,-0.65 v 0 0 Q 49.27,14.94 48.74,14.4 v 0 0 q -0.52,-0.54 -0.52,-1.14 v 0 0 q 0,-0.28 0.16,-0.72 v 0 0 q 0.16,-0.43 0.58,-0.91 v 0 0 q 0.04,0.42 0.45,1 v 0 0 q 0.42,0.57 1.24,1.06 v 0 0 q 0.77,0.45 1.59,0.65 v 0 0 q 0.82,0.21 1.53,0.21 v 0 0 q 0.79,0 1.28,-0.2 v 0 0 q 0.49,-0.2 0.77,-0.47 v 0 0 q 0.28,-0.27 0.39,-0.55 v 0 0 q 0.11,-0.28 0.13,-0.45 v 0 0 Q 56.32,12.6 56.08,12.34 v 0 0 q -0.25,-0.26 -0.66,-0.5 v 0 0 q -0.41,-0.25 -0.96,-0.5 v 0 0 q -0.55,-0.25 -1.13,-0.5 v 0 0 q -0.89,-0.4 -1.52,-0.74 v 0 0 Q 51.17,9.76 50.76,9.4 v 0 0 Q 50.34,9.04 50.16,8.65 v 0 0 Q 49.97,8.26 49.97,7.76 v 0 0 q 0,-0.79 0.47,-1.49 v 0 0 q 0.48,-0.7 1.37,-1.06 v 0 0 q 0.45,-0.2 0.96,-0.28 v 0 0 q 0.51,-0.09 1,-0.09 v 0 0 q 0.93,0 1.81,0.26 v 0 0 q 0.88,0.25 1.76,0.64 z m 13.16,8.62 v 0 0 q 0,-0.58 0.2,-1.51 v 0 0 q 0.2,-0.92 0.52,-1.97 v 0 0 q -0.93,0.07 -1.86,0.18 v 0 0 q -0.93,0.11 -1.61,0.13 v 0 0 q -0.63,1.47 -1.01,2.7 v 0 0 q -0.37,1.24 -0.58,2.42 v 0 0 q -0.53,-0.13 -0.88,-0.44 v 0 0 q -0.35,-0.32 -0.64,-0.79 v 0 0 q 0.11,-0.23 0.26,-0.58 v 0 0 q 0.14,-0.35 0.35,-0.84 v 0 0 q 0.2,-0.5 0.46,-1.16 v 0 0 q 0.26,-0.67 0.59,-1.55 v 0 0 q -0.46,-0.2 -0.61,-0.55 v 0 0 Q 65.76,10.35 66,10.28 v 0 0 q 0.25,-0.06 0.61,-0.13 v 0 L 66.79,9.7 v 0 q 0.3,-0.75 0.49,-1.27 v 0 0 Q 67.47,7.91 67.6,7.41 v 0 0 q 0.13,-0.49 0.25,-1.1 v 0 0 q 0.12,-0.6 0.29,-1.52 v 0 0 q 0.59,0.11 1.07,0.52 v 0 0 q 0.48,0.4 0.83,0.98 v 0 0 q -0.12,0.16 -0.31,0.5 v 0 0 q -0.18,0.34 -0.4,0.8 v 0 0 q -0.21,0.47 -0.46,1.05 v 0 0 q -0.26,0.59 -0.55,1.23 v 0 0 q 0.87,-0.11 1.76,-0.21 v 0 0 q 0.89,-0.1 1.57,-0.14 v 0 0 Q 71.9,8.79 72.18,8.1 v 0 0 q 0.27,-0.69 0.54,-1.27 v 0 0 q 0.26,-0.57 0.51,-1.01 v 0 0 q 0.24,-0.43 0.44,-0.64 v 0 0 q 0.14,0.01 0.37,0.11 v 0 0 q 0.23,0.09 0.47,0.21 v 0 0 q 0.24,0.13 0.43,0.28 v 0 0 q 0.2,0.14 0.27,0.27 v 0 0 Q 74.96,6.29 74.7,6.66 v 0 0 q -0.25,0.38 -0.49,0.87 v 0 0 Q 73.96,8.02 73.72,8.6 v 0 0 q -0.23,0.57 -0.44,1.19 v 0 0 q 0.28,0.25 0.28,0.63 v 0 0 q 0,0.26 -0.12,0.49 v 0 0 q -0.12,-0.03 -0.25,-0.04 v 0 0 q -0.12,-0.01 -0.26,-0.02 v 0 0 q -0.24,0.76 -0.44,1.5 v 0 0 q -0.19,0.74 -0.33,1.41 v 0 0 q -0.13,0.67 -0.21,1.23 v 0 0 q -0.07,0.56 -0.07,0.94 v 0 0 q 0,0.14 0,0.23 v 0 0 q 0.01,0.08 0.02,0.14 v 0 0 q -0.3,-0.02 -0.44,-0.11 v 0 0 Q 71.32,16.1 71.25,16 v 0 0 q -0.07,-0.11 -0.13,-0.21 v 0 0 q -0.06,-0.11 -0.18,-0.17 v 0 0 q -0.1,-0.04 -0.18,-0.19 v 0 0 q -0.09,-0.16 -0.14,-0.35 v 0 0 q -0.06,-0.2 -0.09,-0.39 v 0 0 Q 70.5,14.49 70.5,14.36 Z m 21.96,1.88 v 0 0 q -0.68,-0.2 -0.94,-0.39 v 0 0 q -0.25,-0.2 -0.25,-0.49 v 0 0 q 0,-0.23 0.12,-0.63 v 0 0 q 0.13,-0.41 0.37,-0.96 v 0 0 q 0.25,-0.55 0.59,-1.23 v 0 0 q 0.34,-0.67 0.78,-1.44 v 0 0 q -0.37,-0.01 -0.65,-0.02 v 0 0 q -0.29,-0.01 -0.47,-0.01 v 0 0 q 0.08,-0.21 0.47,-0.36 v 0 0 q 0.4,-0.15 1.04,-0.27 v 0 0 q 0.55,-0.91 1.17,-1.73 v 0 0 q 0.62,-0.83 1.25,-1.52 v 0 0 Q 96.57,6.5 97.2,5.97 v 0 0 q 0.63,-0.52 1.21,-0.83 v 0 0 q 0.01,-0.1 0.02,-0.17 v 0 0 q 0,-0.07 0,-0.1 v 0 0 q 0.2,0 0.53,0.1 v 0 0 q 0.33,0.1 0.64,0.24 v 0 0 q 0.32,0.14 0.56,0.28 v 0 0 q 0.25,0.15 0.28,0.25 v 0 0 q -0.47,0.81 -0.91,2.43 v 0 0 q -0.45,1.62 -0.75,3.87 v 0 0 q -0.07,0.56 -0.12,1.27 v 0 0 q -0.04,0.72 -0.04,1.6 v 0 0 q 0,0.31 0,0.63 v 0 0 q 0,0.32 0.02,0.67 v 0 0 q -0.02,0.02 -0.05,0.02 v 0 0 q -0.03,0 -0.11,0 v 0 0 q -0.2,0 -0.46,-0.07 v 0 0 q -0.26,-0.06 -0.5,-0.15 v 0 0 q -0.25,-0.09 -0.42,-0.2 v 0 0 q -0.18,-0.12 -0.22,-0.2 v 0 0 q -0.01,-0.18 -0.01,-0.36 v 0 0 q 0,-0.17 0,-0.37 v 0 0 q 0,-0.87 0.06,-1.76 v 0 0 q 0.06,-0.9 0.22,-1.85 v 0 0 q -0.2,-0.01 -0.52,-0.04 v 0 0 Q 96.31,11.21 95.91,11.2 v 0 0 q -0.4,-0.01 -0.86,-0.04 v 0 0 Q 94.6,11.14 94.16,11.13 v 0 0 q -0.33,0.63 -0.63,1.25 v 0 0 q -0.29,0.63 -0.5,1.26 v 0 0 q -0.24,0.67 -0.39,1.34 v 0 0 q -0.14,0.67 -0.18,1.26 z m 5.4,-8.41 v 0 0 q 0.06,-0.2 0.13,-0.54 v 0 0 q 0.08,-0.35 0.15,-0.72 v 0 0 q -0.35,0.12 -0.78,0.46 v 0 0 q -0.42,0.33 -0.88,0.83 v 0 0 q -0.45,0.5 -0.92,1.12 v 0 0 Q 95.09,9.6 94.65,10.3 v 0 0 q 1.18,-0.09 2.68,-0.12 v 0 0 q 0.11,-0.59 0.24,-1.17 v 0 0 q 0.14,-0.58 0.29,-1.18 z m 11.2,8.41 v 0 0 q -0.8,-0.24 -1.08,-0.45 v 0 0 q -0.28,-0.22 -0.28,-0.6 v 0 0 q 0,-0.42 0.2,-1.18 v 0 0 q 0.19,-0.77 0.51,-1.7 v 0 0 q 0.31,-0.94 0.72,-1.96 v 0 0 q 0.41,-1.03 0.83,-1.96 v 0 0 q 0.42,-0.94 0.81,-1.72 v 0 0 q 0.4,-0.78 0.71,-1.21 v 0 l -0.1,-0.59 v 0 q 0.2,0 0.55,0.1 v 0 0 q 0.35,0.1 0.71,0.24 v 0 0 q 0.35,0.14 0.63,0.28 v 0 0 q 0.27,0.15 0.3,0.25 v 0 0 q -0.07,0.34 -0.11,1.02 v 0 0 q -0.05,0.67 -0.05,1.44 v 0 0 q 0,1.53 0.12,2.99 v 0 0 q 0.12,1.47 0.56,2.98 v 0 0 q 0.22,-1.12 0.48,-2.23 v 0 0 q 0.26,-1.12 0.54,-2.13 v 0 0 q 0.28,-1.02 0.56,-1.89 v 0 0 q 0.28,-0.86 0.54,-1.52 v 0 0 q 0.26,-0.65 0.48,-1.02 v 0 0 q 0.22,-0.37 0.41,-0.4 v 0 0 q 0.15,0.03 0.33,0.12 v 0 0 q 0.18,0.09 0.35,0.22 v 0 0 q 0.17,0.13 0.31,0.28 v 0 0 q 0.14,0.15 0.22,0.31 v 0 0 q -0.44,0.18 -0.89,0.85 v 0 0 q -0.44,0.67 -0.84,1.63 v 0 0 q -0.39,0.96 -0.74,2.08 v 0 0 q -0.34,1.12 -0.6,2.21 v 0 0 q -0.26,1.08 -0.41,2.01 v 0 0 q -0.14,0.92 -0.16,1.48 v 0 0 q 0,0.03 0.02,0.04 v 0 0 q -0.04,0.02 -0.09,0.02 v 0 0 q -0.05,0 -0.09,0 v 0 0 q -0.65,0 -1.15,-0.16 v 0 0 q -0.49,-0.17 -0.65,-0.46 v 0 0 q -0.29,-1.18 -0.49,-2.27 v 0 0 q -0.19,-1.09 -0.33,-2.18 v 0 0 q -0.13,-1.09 -0.21,-2.21 v 0 0 q -0.07,-1.11 -0.11,-2.33 v 0 0 q -0.27,0.42 -0.56,1.1 v 0 0 q -0.3,0.68 -0.58,1.49 v 0 0 q -0.28,0.81 -0.54,1.71 v 0 0 q -0.26,0.9 -0.45,1.75 v 0 0 q -0.2,0.85 -0.31,1.62 v 0 0 q -0.11,0.76 -0.11,1.32 v 0 0 q 0,0.29 0,0.42 v 0 0 q 0.01,0.13 0.04,0.21 z m 16.25,-1.79 v 0 0 q 0.21,-0.46 0.51,-1.19 v 0 0 q 0.29,-0.73 0.61,-1.58 v 0 0 q 0.33,-0.84 0.66,-1.73 v 0 0 q 0.34,-0.89 0.63,-1.69 v 0 0 q 0.3,-0.8 0.51,-1.43 v 0 0 q 0.22,-0.63 0.32,-0.96 v 0 0 q -0.88,0.36 -1.51,1.1 v 0 0 q -0.63,0.74 -0.96,1.86 v 0 0 q -0.32,-0.11 -0.58,-0.4 v 0 0 q -0.27,-0.28 -0.35,-0.72 v 0 0 q 0.14,-0.64 0.52,-1.17 v 0 0 q 0.39,-0.53 0.97,-0.91 v 0 0 Q 127.23,5.25 128,5.05 v 0 0 q 0.77,-0.21 1.65,-0.21 v 0 0 q 1.12,0 2.06,0.33 v 0 0 q 0.94,0.33 1.61,0.92 v 0 0 q 0.67,0.59 1.05,1.41 v 0 0 q 0.38,0.83 0.38,1.84 v 0 0 q 0,1.37 -0.5,2.62 v 0 0 q -0.51,1.24 -1.37,2.19 v 0 0 q -0.86,0.96 -1.99,1.52 v 0 0 q -1.14,0.57 -2.38,0.57 v 0 0 q -1.15,0 -1.97,-0.45 v 0 0 q -0.82,-0.46 -1.23,-1.34 z m 4.95,-8.91 v 0 0 q -0.7,0 -1.33,0.2 v 0 0 q 0.61,0.22 1.02,0.47 v 0 0 q 0.4,0.24 0.56,0.38 v 0 0 q -0.11,0.16 -0.33,0.55 v 0 0 q -0.22,0.39 -0.51,0.95 v 0 0 q -0.28,0.56 -0.6,1.23 v 0 0 q -0.33,0.66 -0.63,1.36 v 0 0 q -0.8,1.78 -1.16,2.8 v 0 0 q -0.36,1.02 -0.36,1.42 v 0 0 q 0.2,0.07 0.48,0.09 v 0 0 q 0.28,0.03 0.6,0.03 v 0 0 q 1.14,0 2.15,-0.52 v 0 0 q 1.02,-0.53 1.78,-1.41 v 0 0 q 0.76,-0.88 1.2,-2.05 v 0 0 q 0.44,-1.17 0.44,-2.46 v 0 0 q 0,-1.44 -0.89,-2.24 v 0 0 q -0.9,-0.8 -2.42,-0.8 z m 27.8,8.82 v 0 0 q 0,-0.58 0.2,-1.51 v 0 0 q 0.19,-0.92 0.51,-1.97 v 0 0 q -0.92,0.07 -1.85,0.18 v 0 0 q -0.93,0.11 -1.62,0.13 v 0 0 q -0.63,1.47 -1,2.7 v 0 0 q -0.37,1.24 -0.58,2.42 v 0 0 q -0.53,-0.13 -0.88,-0.44 v 0 0 q -0.35,-0.32 -0.65,-0.79 v 0 0 q 0.12,-0.23 0.26,-0.58 v 0 0 q 0.15,-0.35 0.35,-0.84 v 0 0 q 0.21,-0.5 0.46,-1.16 v 0 0 q 0.26,-0.67 0.6,-1.55 v 0 0 q -0.46,-0.2 -0.62,-0.55 v 0 0 q 0.07,-0.05 0.32,-0.12 v 0 0 q 0.24,-0.06 0.61,-0.13 v 0 l 0.18,-0.45 v 0 q 0.29,-0.75 0.48,-1.27 v 0 0 q 0.19,-0.52 0.32,-1.02 v 0 0 q 0.14,-0.49 0.26,-1.1 v 0 0 q 0.12,-0.6 0.28,-1.52 v 0 0 q 0.59,0.11 1.07,0.52 v 0 0 q 0.49,0.4 0.84,0.98 v 0 0 q -0.13,0.16 -0.31,0.5 v 0 0 q -0.18,0.34 -0.4,0.8 v 0 0 q -0.22,0.47 -0.47,1.05 v 0 0 q -0.25,0.59 -0.54,1.23 v 0 0 q 0.86,-0.11 1.75,-0.21 v 0 0 q 0.89,-0.1 1.58,-0.14 v 0 0 q 0.25,-0.73 0.52,-1.42 v 0 0 q 0.28,-0.69 0.54,-1.27 v 0 0 q 0.27,-0.57 0.51,-1.01 v 0 0 q 0.25,-0.43 0.44,-0.64 v 0 0 q 0.14,0.01 0.37,0.11 v 0 0 q 0.24,0.09 0.47,0.21 v 0 0 q 0.24,0.13 0.44,0.28 v 0 0 q 0.19,0.14 0.26,0.27 v 0 0 q -0.25,0.24 -0.5,0.61 v 0 0 q -0.25,0.38 -0.5,0.87 v 0 0 q -0.24,0.49 -0.48,1.07 v 0 0 q -0.24,0.57 -0.45,1.19 v 0 0 q 0.28,0.25 0.28,0.63 v 0 0 q 0,0.26 -0.11,0.49 v 0 0 q -0.13,-0.03 -0.25,-0.04 v 0 0 q -0.13,-0.01 -0.27,-0.02 v 0 0 q -0.24,0.76 -0.43,1.5 v 0 0 q -0.2,0.74 -0.33,1.41 v 0 0 q -0.13,0.67 -0.21,1.23 v 0 0 q -0.08,0.56 -0.08,0.94 v 0 0 q 0,0.14 0.01,0.23 v 0 0 q 0.01,0.08 0.02,0.14 v 0 0 q -0.31,-0.02 -0.45,-0.11 v 0 0 Q 158.87,16.1 158.8,16 v 0 0 q -0.07,-0.11 -0.12,-0.21 v 0 0 q -0.06,-0.11 -0.19,-0.17 v 0 0 q -0.09,-0.04 -0.18,-0.19 v 0 0 q -0.08,-0.16 -0.14,-0.35 v 0 0 q -0.05,-0.2 -0.08,-0.39 v 0 0 q -0.03,-0.2 -0.03,-0.33 z m 16.77,-5.15 v 0 0 q 0.46,0 0.72,0.25 v 0 0 q 0.26,0.26 0.26,0.7 v 0 0 q 0,0.12 -0.02,0.23 v 0 0 q -0.02,0.12 -0.05,0.21 v 0 0 q -0.18,-0.03 -0.4,-0.05 v 0 0 q -0.23,-0.02 -0.54,-0.02 v 0 0 q -0.6,0 -1.21,0.1 v 0 0 q -0.62,0.11 -1.18,0.18 v 0 0 q -0.32,0.74 -0.59,1.43 v 0 0 q -0.26,0.7 -0.45,1.27 v 0 0 q -0.19,0.57 -0.3,0.99 v 0 0 q -0.1,0.42 -0.12,0.63 v 0 0 q 1.14,-0.23 2.29,-0.4 v 0 0 q 1.16,-0.17 2.43,-0.25 v 0 0 q 0.16,0.23 0.26,0.51 v 0 0 q 0.11,0.28 0.11,0.61 v 0 0 q 0,0.08 0,0.18 v 0 0 q 0,0.1 -0.03,0.19 v 0 0 q -0.39,-0.01 -0.83,-0.02 v 0 0 q -0.43,0 -1.13,0 v 0 0 q -0.46,0 -0.88,0.02 v 0 0 q -0.41,0.02 -0.83,0.06 v 0 0 q -0.42,0.04 -0.89,0.11 v 0 0 q -0.47,0.07 -1.06,0.17 v 0 0 q -0.64,-0.25 -1.24,-1.23 v 0 0 q 0.24,-0.51 0.66,-1.54 v 0 0 q 0.43,-1.02 1.09,-2.75 v 0 0 q -0.63,-0.19 -0.83,-0.7 v 0 0 q 0.07,-0.07 0.41,-0.17 v 0 0 q 0.33,-0.11 0.82,-0.22 v 0 0 q 0.21,-0.54 0.36,-0.95 v 0 0 q 0.15,-0.41 0.26,-0.76 v 0 0 q 0.11,-0.36 0.2,-0.7 v 0 0 q 0.09,-0.35 0.18,-0.75 v 0 0 q -0.49,-0.03 -0.77,-0.27 v 0 0 q -0.28,-0.25 -0.28,-0.64 v 0 0 q 0,-0.11 0.03,-0.27 v 0 0 q 0.04,-0.15 0.08,-0.26 v 0 0 q 0.28,0.04 0.54,0.05 v 0 0 q 0.26,0.02 0.68,0.02 v 0 0 q 0.88,0 1.65,-0.05 v 0 0 Q 175,5.07 175.62,5.01 v 0 0 q 0.63,-0.05 1.07,-0.1 v 0 0 q 0.45,-0.05 0.69,-0.05 v 0 0 q 0.32,0 0.57,0.33 v 0 0 q 0.26,0.34 0.38,0.96 v 0 0 Q 177.9,6.1 177.62,6.09 v 0 0 q -0.27,-0.01 -0.48,-0.01 v 0 0 q -0.77,0 -1.41,0.07 v 0 0 q -0.63,0.08 -1.22,0.16 v 0 0 q -0.08,0.13 -0.19,0.33 v 0 0 q -0.1,0.19 -0.27,0.54 v 0 0 q -0.17,0.35 -0.42,0.88 v 0 0 q -0.24,0.54 -0.59,1.33 v 0 0 q 0.53,-0.08 1,-0.13 v 0 0 q 0.47,-0.05 0.79,-0.05 z m 10.38,7.03 v 0 0 q -0.68,-0.2 -0.94,-0.39 v 0 0 q -0.25,-0.2 -0.25,-0.49 v 0 0 q 0,-0.23 0.12,-0.63 v 0 0 q 0.13,-0.41 0.37,-0.96 v 0 0 q 0.25,-0.55 0.59,-1.23 v 0 0 q 0.34,-0.67 0.78,-1.44 v 0 0 q -0.37,-0.01 -0.65,-0.02 v 0 0 q -0.29,-0.01 -0.47,-0.01 v 0 0 q 0.08,-0.21 0.47,-0.36 v 0 0 q 0.4,-0.15 1.04,-0.27 v 0 0 q 0.55,-0.91 1.17,-1.73 v 0 0 q 0.62,-0.83 1.25,-1.52 v 0 0 q 0.63,-0.69 1.26,-1.22 v 0 0 q 0.63,-0.52 1.21,-0.83 v 0 0 q 0.01,-0.1 0.02,-0.17 v 0 0 q 0,-0.07 0,-0.1 v 0 0 q 0.2,0 0.53,0.1 v 0 0 q 0.33,0.1 0.64,0.24 v 0 0 q 0.32,0.14 0.56,0.28 v 0 0 q 0.25,0.15 0.28,0.25 v 0 0 q -0.47,0.81 -0.91,2.43 v 0 0 q -0.45,1.62 -0.75,3.87 v 0 0 q -0.07,0.56 -0.12,1.27 v 0 0 q -0.04,0.72 -0.04,1.6 v 0 0 q 0,0.31 0,0.63 v 0 0 q 0,0.32 0.02,0.67 v 0 0 q -0.02,0.02 -0.05,0.02 v 0 0 q -0.03,0 -0.11,0 v 0 0 q -0.2,0 -0.46,-0.07 v 0 0 q -0.26,-0.06 -0.5,-0.15 v 0 0 q -0.25,-0.09 -0.42,-0.2 v 0 0 q -0.18,-0.12 -0.22,-0.2 v 0 0 q -0.01,-0.18 -0.01,-0.36 v 0 0 q 0,-0.17 0,-0.37 v 0 0 q 0,-0.87 0.06,-1.76 v 0 0 q 0.06,-0.9 0.22,-1.85 v 0 0 q -0.2,-0.01 -0.52,-0.04 v 0 0 q -0.32,-0.02 -0.72,-0.03 v 0 0 q -0.4,-0.01 -0.86,-0.04 v 0 0 q -0.45,-0.02 -0.89,-0.03 v 0 0 q -0.33,0.63 -0.63,1.25 v 0 0 q -0.29,0.63 -0.5,1.26 v 0 0 q -0.24,0.67 -0.39,1.34 v 0 0 q -0.14,0.67 -0.18,1.26 z m 5.4,-8.41 v 0 0 q 0.06,-0.2 0.13,-0.54 v 0 0 q 0.08,-0.35 0.15,-0.72 v 0 0 q -0.35,0.12 -0.78,0.46 v 0 0 q -0.42,0.33 -0.88,0.83 v 0 0 q -0.45,0.5 -0.92,1.12 v 0 0 q -0.47,0.62 -0.91,1.32 v 0 0 q 1.18,-0.09 2.68,-0.12 v 0 0 q 0.11,-0.59 0.24,-1.17 v 0 0 q 0.14,-0.58 0.29,-1.18 z m 15.16,6.55 v 0 0 q 0.35,0.6 0.35,1.16 v 0 0 q 0,0.13 -0.02,0.23 v 0 0 q -0.02,0.11 -0.05,0.22 v 0 0 q -0.24,-0.03 -0.5,-0.04 v 0 0 q -0.25,-0.02 -0.53,-0.02 v 0 0 q -0.34,0 -0.68,0.02 v 0 0 q -0.35,0.02 -0.77,0.07 v 0 0 q -0.42,0.04 -0.93,0.11 v 0 0 q -0.52,0.07 -1.21,0.18 v 0 0 q -0.32,-0.11 -0.64,-0.44 v 0 0 q -0.32,-0.33 -0.6,-0.79 v 0 0 q 0.14,-0.31 0.35,-0.77 v 0 0 q 0.21,-0.45 0.49,-1.1 v 0 0 q 0.28,-0.65 0.62,-1.53 v 0 0 q 0.34,-0.87 0.73,-2.02 v 0 0 q 0.26,-0.76 0.44,-1.33 v 0 0 Q 203,7.76 203.15,7.22 v 0 0 q 0.14,-0.54 0.28,-1.13 v 0 0 q 0.14,-0.59 0.31,-1.36 v 0 0 q 0.56,0.11 0.97,0.41 v 0 0 q 0.42,0.31 0.8,0.87 v 0 0 q -0.12,0.18 -0.3,0.58 v 0 0 Q 205.03,7 204.78,7.58 v 0 0 q -0.24,0.58 -0.53,1.32 v 0 0 q -0.3,0.73 -0.62,1.57 v 0 0 q -0.31,0.83 -0.6,1.56 v 0 0 q -0.3,0.72 -0.53,1.31 v 0 0 q -0.23,0.59 -0.37,1.01 v 0 0 q -0.14,0.42 -0.14,0.63 v 0 0 q 0.23,-0.01 0.41,-0.03 v 0 0 q 0.18,-0.01 0.38,-0.05 v 0 0 q 0.19,-0.03 0.42,-0.08 v 0 0 q 0.23,-0.05 0.56,-0.13 v 0 0 q 0.28,-0.07 0.51,-0.12 v 0 0 q 0.24,-0.05 0.47,-0.09 v 0 0 q 0.23,-0.03 0.48,-0.05 v 0 0 q 0.24,-0.02 0.55,-0.05 z m 10.56,-7.69 v 0 0 q -0.56,0 -0.86,-0.31 v 0 0 q -0.3,-0.32 -0.3,-0.77 v 0 0 q 0,-0.11 0.03,-0.26 v 0 0 q 0.04,-0.16 0.09,-0.27 v 0 0 q 0.18,0.09 0.54,0.12 v 0 0 q 0.36,0.04 0.83,0.04 v 0 0 q 0.72,0 1.62,-0.07 v 0 0 q 0.9,-0.06 1.73,-0.13 v 0 0 q 0.83,-0.07 1.46,-0.13 v 0 0 q 0.63,-0.07 0.81,-0.07 v 0 0 q 0.52,0 0.75,0.39 v 0 0 q 0.23,0.38 0.34,1.03 v 0 0 q -0.36,-0.03 -0.72,-0.05 v 0 0 q -0.36,-0.02 -0.61,-0.02 v 0 0 q -0.45,0 -0.9,0.03 v 0 0 q -0.46,0.02 -0.92,0.08 v 0 0 q -0.2,0.41 -0.43,0.96 v 0 0 q -0.24,0.55 -0.47,1.15 v 0 0 q -0.23,0.61 -0.44,1.2 v 0 0 q -0.21,0.6 -0.37,1.07 v 0 0 q -0.31,0.93 -0.54,1.71 v 0 0 q -0.23,0.78 -0.4,1.46 v 0 0 q -0.18,0.68 -0.3,1.3 v 0 0 q -0.13,0.61 -0.23,1.2 v 0 0 q -0.94,-0.14 -1.57,-1.17 v 0 0 q 0.12,-0.44 0.28,-0.95 v 0 0 q 0.16,-0.51 0.37,-1.16 v 0 0 q 0.22,-0.65 0.52,-1.48 v 0 0 q 0.29,-0.82 0.67,-1.87 v 0 0 q 0.14,-0.4 0.29,-0.82 v 0 0 q 0.16,-0.43 0.3,-0.85 v 0 0 q 0.15,-0.42 0.27,-0.81 v 0 0 q 0.12,-0.39 0.2,-0.72 v 0 0 q -0.59,0.07 -1.11,0.12 v 0 0 q -0.53,0.05 -0.93,0.05 z m 17.92,7.67 v 0 0 q 0,-0.58 0.19,-1.51 v 0 0 q 0.2,-0.92 0.52,-1.97 v 0 0 q -0.92,0.07 -1.85,0.18 v 0 0 q -0.93,0.11 -1.62,0.13 v 0 0 q -0.63,1.47 -1,2.7 v 0 0 q -0.37,1.24 -0.58,2.42 v 0 0 q -0.53,-0.13 -0.88,-0.44 v 0 0 q -0.35,-0.32 -0.65,-0.79 v 0 0 q 0.11,-0.23 0.26,-0.58 v 0 0 q 0.15,-0.35 0.35,-0.84 v 0 0 q 0.2,-0.5 0.46,-1.16 v 0 0 q 0.26,-0.67 0.6,-1.55 v 0 0 q -0.46,-0.2 -0.62,-0.55 v 0 0 q 0.07,-0.05 0.32,-0.12 v 0 0 q 0.24,-0.06 0.61,-0.13 v 0 l 0.18,-0.45 v 0 q 0.29,-0.75 0.48,-1.27 v 0 0 q 0.19,-0.52 0.32,-1.02 v 0 0 q 0.14,-0.49 0.25,-1.1 v 0 0 q 0.12,-0.6 0.29,-1.52 v 0 0 q 0.59,0.11 1.07,0.52 v 0 0 q 0.49,0.4 0.84,0.98 v 0 0 q -0.13,0.16 -0.31,0.5 v 0 0 q -0.18,0.34 -0.4,0.8 v 0 0 q -0.22,0.47 -0.47,1.05 v 0 0 q -0.25,0.59 -0.55,1.23 v 0 0 q 0.87,-0.11 1.76,-0.21 v 0 0 q 0.89,-0.1 1.58,-0.14 v 0 0 q 0.25,-0.73 0.52,-1.42 v 0 0 q 0.27,-0.69 0.54,-1.27 v 0 0 q 0.27,-0.57 0.51,-1.01 v 0 0 q 0.25,-0.43 0.44,-0.64 v 0 0 q 0.14,0.01 0.37,0.11 v 0 0 q 0.23,0.09 0.47,0.21 v 0 0 q 0.24,0.13 0.44,0.28 v 0 0 q 0.19,0.14 0.26,0.27 v 0 0 q -0.25,0.24 -0.5,0.61 v 0 0 q -0.25,0.38 -0.5,0.87 v 0 0 q -0.24,0.49 -0.48,1.07 v 0 0 q -0.24,0.57 -0.45,1.19 v 0 0 q 0.28,0.25 0.28,0.63 v 0 0 q 0,0.26 -0.11,0.49 v 0 0 q -0.13,-0.03 -0.25,-0.04 v 0 0 q -0.13,-0.01 -0.27,-0.02 v 0 0 q -0.24,0.76 -0.43,1.5 v 0 0 q -0.2,0.74 -0.33,1.41 v 0 0 q -0.14,0.67 -0.21,1.23 v 0 0 q -0.08,0.56 -0.08,0.94 v 0 0 q 0,0.14 0.01,0.23 v 0 0 q 0,0.08 0.02,0.14 v 0 0 q -0.31,-0.02 -0.45,-0.11 v 0 0 Q 235.06,16.1 234.99,16 v 0 0 q -0.07,-0.11 -0.13,-0.21 v 0 0 q -0.05,-0.11 -0.18,-0.17 v 0 0 q -0.1,-0.04 -0.18,-0.19 v 0 0 q -0.08,-0.16 -0.14,-0.35 v 0 0 q -0.06,-0.2 -0.08,-0.39 v 0 0 q -0.03,-0.2 -0.03,-0.33 z m 16.01,-4.01 v 0 0 q 1.05,-1.15 1.89,-2.44 v 0 0 q 0.83,-1.29 1.54,-2.9 v 0 0 q 0.37,0.04 0.7,0.2 v 0 0 q 0.34,0.15 0.54,0.35 v 0 0 q -0.77,0.92 -1.4,1.68 v 0 0 q -0.62,0.75 -1.14,1.42 v 0 0 q -0.52,0.66 -0.96,1.27 v 0 0 q -0.44,0.61 -0.86,1.23 v 0 0 q -0.21,0.71 -0.39,1.44 v 0 0 q -0.18,0.73 -0.32,1.39 v 0 0 q -0.14,0.67 -0.22,1.23 v 0 0 q -0.08,0.57 -0.08,0.98 v 0 0 q -0.15,0 -0.49,-0.06 v 0 0 q -0.33,-0.07 -0.68,-0.15 v 0 0 q -0.35,-0.09 -0.64,-0.17 v 0 0 q -0.29,-0.08 -0.34,-0.14 v 0 0 q 0.22,-0.38 0.44,-0.93 v 0 0 q 0.22,-0.55 0.43,-1.16 v 0 0 q 0.21,-0.61 0.4,-1.23 v 0 0 q 0.2,-0.63 0.37,-1.16 v 0 0 q -0.35,-1.09 -0.68,-2.05 v 0 0 q -0.33,-0.96 -0.64,-1.74 v 0 0 q -0.31,-0.77 -0.59,-1.33 v 0 0 q -0.28,-0.56 -0.53,-0.86 v 0 0 q 0.14,-0.05 0.43,-0.11 v 0 0 Q 247.32,5.05 247.67,5 v 0 0 q 0.34,-0.06 0.7,-0.09 v 0 0 Q 248.72,4.87 249,4.86 v 0 0 q 0,0.35 0.07,0.85 v 0 0 q 0.06,0.51 0.16,1.08 v 0 0 q 0.11,0.57 0.25,1.16 v 0 0 q 0.14,0.59 0.28,1.08 v 0 0 q 0.14,0.49 0.27,0.85 v 0 0 q 0.14,0.35 0.23,0.47 z" />
  </g>
</svg>
