<svg data-v-d3f97b9e="" xmlns="http://www.w3.org/2000/svg" viewBox="0 0 308 104"><!----><!----><!----><g data-v-d3f97b9e="" id="ba292e3c-d589-4216-a6d7-3581c0cc7ea0" fill="white" transform="matrix(5.813953123029061,0,0,5.813953123029061,83.35307132821693,-2.0930233266690195)"><path d="M4.84 5.42L4.84 5.42L4.84 5.42Q5.29 5.50 5.67 5.68L5.67 5.68L5.67 5.68Q6.05 5.85 6.33 6.13L6.33 6.13L6.33 6.13Q6.61 6.41 6.76 6.81L6.76 6.81L6.76 6.81Q6.92 7.21 6.92 7.74L6.92 7.74L6.92 7.74Q6.92 8.65 6.54 9.20L6.54 9.20L6.54 9.20Q6.16 9.74 5.56 10.03L5.56 10.03L5.56 10.03Q4.96 10.32 4.19 10.41L4.19 10.41L4.19 10.41Q3.42 10.50 2.65 10.50L2.65 10.50L1.12 10.50L1.12 0.73L2.65 0.73L2.65 0.73Q3.36 0.73 4.07 0.78L4.07 0.78L4.07 0.78Q4.77 0.84 5.34 1.08L5.34 1.08L5.34 1.08Q5.91 1.32 6.27 1.82L6.27 1.82L6.27 1.82Q6.62 2.32 6.62 3.21L6.62 3.21L6.62 3.18L6.62 3.18Q6.62 3.74 6.48 4.11L6.48 4.11L6.48 4.11Q6.33 4.48 6.09 4.73L6.09 4.73L6.09 4.73Q5.85 4.98 5.52 5.14L5.52 5.14L5.52 5.14Q5.19 5.29 4.84 5.42ZM2.10 1.58L2.10 1.64L2.10 4.98L3.40 4.98L3.40 4.98Q3.78 4.98 4.19 4.90L4.19 4.90L4.19 4.90Q4.59 4.82 4.92 4.61L4.92 4.61L4.92 4.61Q5.25 4.41 5.46 4.06L5.46 4.06L5.46 4.06Q5.67 3.71 5.67 3.18L5.67 3.18L5.67 3.18Q5.67 2.58 5.41 2.25L5.41 2.25L5.41 2.25Q5.15 1.93 4.78 1.79L4.78 1.79L4.78 1.79Q4.41 1.64 4.00 1.61L4.00 1.61L4.00 1.61Q3.60 1.58 3.29 1.58L3.29 1.58L2.10 1.58ZM2.10 9.66L3.25 9.66L3.25 9.66Q3.79 9.66 4.21 9.58L4.21 9.58L4.21 9.58Q4.62 9.49 4.91 9.36L4.91 9.36L4.91 9.36Q5.21 9.23 5.40 9.05L5.40 9.05L5.40 9.05Q5.59 8.88 5.70 8.69L5.70 8.69L5.70 8.69Q5.96 8.27 5.95 7.73L5.95 7.73L5.95 7.73Q5.95 7.20 5.75 6.83L5.75 6.83L5.75 6.83Q5.56 6.47 5.22 6.25L5.22 6.25L5.22 6.25Q4.89 6.03 4.45 5.94L4.45 5.94L4.45 5.94Q4.02 5.85 3.54 5.85L3.54 5.85L2.10 5.85L2.10 9.66ZM11.75 3.19L11.75 3.19L11.75 3.19Q12.24 3.19 12.82 3.35L12.82 3.35L12.82 3.35Q13.41 3.51 13.92 3.94L13.92 3.94L13.92 3.94Q14.42 4.37 14.76 5.10L14.76 5.10L14.76 5.10Q15.09 5.82 15.09 6.96L15.09 6.96L15.09 6.96Q15.09 8.09 14.76 8.81L14.76 8.81L14.76 8.81Q14.42 9.53 13.92 9.95L13.92 9.95L13.92 9.95Q13.41 10.36 12.82 10.52L12.82 10.52L12.82 10.52Q12.24 10.68 11.75 10.68L11.75 10.68L11.75 10.68Q11.26 10.68 10.68 10.52L10.68 10.52L10.68 10.52Q10.09 10.36 9.60 9.95L9.60 9.95L9.60 9.95Q9.10 9.53 8.76 8.81L8.76 8.81L8.76 8.81Q8.43 8.09 8.43 6.96L8.43 6.96L8.43 6.96Q8.43 5.82 8.76 5.10L8.76 5.10L8.76 5.10Q9.10 4.37 9.60 3.94L9.60 3.94L9.60 3.94Q10.09 3.51 10.68 3.35L10.68 3.35L10.68 3.35Q11.26 3.19 11.75 3.19ZM11.75 9.93L11.75 9.93L11.75 9.93Q12.94 9.91 13.52 9.11L13.52 9.11L13.52 9.11Q14.11 8.32 14.11 6.96L14.11 6.96L14.11 6.96Q14.11 6.29 13.96 5.73L13.96 5.73L13.96 5.73Q13.82 5.18 13.52 4.78L13.52 4.78L13.52 4.78Q13.22 4.38 12.78 4.17L12.78 4.17L12.78 4.17Q12.33 3.95 11.75 3.95L11.75 3.95L11.75 3.95Q11.16 3.95 10.72 4.17L10.72 4.17L10.72 4.17Q10.28 4.38 9.98 4.78L9.98 4.78L9.98 4.78Q9.69 5.18 9.54 5.73L9.54 5.73L9.54 5.73Q9.39 6.29 9.39 6.96L9.39 6.96L9.39 6.96Q9.39 7.63 9.54 8.18L9.54 8.18L9.54 8.18Q9.69 8.74 9.98 9.12L9.98 9.12L9.98 9.12Q10.28 9.51 10.72 9.72L10.72 9.72L10.72 9.72Q11.16 9.93 11.75 9.93ZM20.02 3.19L20.02 3.19L20.02 3.19Q20.68 3.19 21.13 3.40L21.13 3.40L21.13 3.40Q21.57 3.61 21.85 4.02L21.85 4.02L21.85 4.02Q22.13 4.42 22.26 5.02L22.26 5.02L22.26 5.02Q22.39 5.61 22.39 6.37L22.39 6.37L22.39 10.50L21.50 10.50L21.50 6.43L21.50 6.43Q21.50 5.15 21.15 4.56L21.15 4.56L21.15 4.56Q20.80 3.96 19.92 3.95L19.92 3.95L19.92 3.95Q19.36 3.95 18.93 4.15L18.93 4.15L18.93 4.15Q18.49 4.35 18.19 4.74L18.19 4.74L18.19 4.74Q17.89 5.12 17.74 5.67L17.74 5.67L17.74 5.67Q17.58 6.22 17.58 6.87L17.58 6.87L17.58 10.50L16.70 10.50L16.70 3.36L17.46 3.36L17.58 4.56L17.58 4.56Q17.92 3.93 18.55 3.56L18.55 3.56L18.55 3.56Q19.18 3.19 20.02 3.19ZM28.48 3.82L28.15 4.52L28.15 4.52Q27.75 4.26 27.29 4.10L27.29 4.10L27.29 4.10Q26.82 3.95 26.40 3.95L26.40 3.95L26.40 3.95Q25.80 3.95 25.47 4.22L25.47 4.22L25.47 4.22Q25.14 4.49 25.14 5.08L25.14 5.08L25.14 5.08Q25.14 5.36 25.27 5.56L25.27 5.56L25.27 5.56Q25.40 5.77 25.61 5.92L25.61 5.92L25.61 5.92Q25.82 6.08 26.09 6.20L26.09 6.20L26.09 6.20Q26.36 6.31 26.67 6.41L26.67 6.41L26.67 6.41Q27.03 6.54 27.41 6.69L27.41 6.69L27.41 6.69Q27.78 6.85 28.08 7.09L28.08 7.09L28.08 7.09Q28.38 7.34 28.57 7.70L28.57 7.70L28.57 7.70Q28.76 8.06 28.76 8.61L28.76 8.61L28.76 8.61Q28.76 9.14 28.55 9.53L28.55 9.53L28.55 9.53Q28.35 9.93 28.02 10.18L28.02 10.18L28.02 10.18Q27.69 10.43 27.27 10.55L27.27 10.55L27.27 10.55Q26.84 10.67 26.38 10.67L26.38 10.67L26.38 10.67Q25.70 10.67 25.05 10.44L25.05 10.44L25.05 10.44Q24.39 10.21 23.93 9.72L23.93 9.72L24.23 8.96L24.23 8.96Q24.71 9.41 25.27 9.66L25.27 9.66L25.27 9.66Q25.83 9.91 26.40 9.91L26.40 9.91L26.40 9.91Q27.02 9.91 27.39 9.63L27.39 9.63L27.39 9.63Q27.76 9.34 27.78 8.74L27.78 8.74L27.78 8.74Q27.78 8.41 27.66 8.19L27.66 8.19L27.66 8.19Q27.54 7.97 27.33 7.80L27.33 7.80L27.33 7.80Q27.12 7.64 26.83 7.52L26.83 7.52L26.83 7.52Q26.54 7.39 26.22 7.28L26.22 7.28L26.22 7.28Q25.86 7.15 25.49 7L25.49 7L25.49 7Q25.13 6.85 24.84 6.61L24.84 6.61L24.84 6.61Q24.54 6.37 24.37 6.02L24.37 6.02L24.37 6.02Q24.19 5.67 24.19 5.15L24.19 5.15L24.19 5.15Q24.19 4.63 24.38 4.26L24.38 4.26L24.38 4.26Q24.57 3.88 24.89 3.65L24.89 3.65L24.89 3.65Q25.20 3.42 25.61 3.30L25.61 3.30L25.61 3.30Q26.03 3.19 26.47 3.19L26.47 3.19L26.47 3.19Q27.01 3.19 27.53 3.36L27.53 3.36L27.53 3.36Q28.06 3.53 28.48 3.82L28.48 3.82ZM32.94 3.19L32.94 3.19L32.94 3.19Q33.07 3.19 33.29 3.21L33.29 3.21L33.29 3.21Q33.52 3.22 33.78 3.30L33.78 3.30L33.78 3.30Q34.03 3.37 34.30 3.54L34.30 3.54L34.30 3.54Q34.57 3.70 34.78 3.98L34.78 3.98L34.78 3.98Q35 4.26 35.14 4.68L35.14 4.68L35.14 4.68Q35.28 5.11 35.28 5.73L35.28 5.73L35.28 10.50L34.52 10.50L34.44 9.35L34.44 9.35Q34.44 9.35 34.31 9.56L34.31 9.56L34.31 9.56Q34.19 9.77 33.92 10.02L33.92 10.02L33.92 10.02Q33.66 10.28 33.24 10.48L33.24 10.48L33.24 10.48Q32.83 10.68 32.24 10.68L32.24 10.68L32.24 10.68Q31.08 10.68 30.42 10.12L30.42 10.12L30.42 10.12Q29.75 9.55 29.82 8.46L29.82 8.46L29.82 8.46Q29.89 7.22 30.98 6.66L30.98 6.66L30.98 6.66Q32.07 6.10 34.38 6.15L34.38 6.15L34.38 5.71L34.38 5.71Q34.38 5.00 34.17 4.63L34.17 4.63L34.17 4.63Q33.96 4.27 33.68 4.12L33.68 4.12L33.68 4.12Q33.40 3.98 33.14 3.97L33.14 3.97L33.14 3.97Q32.87 3.96 32.76 3.96L32.76 3.96L32.76 3.96Q32.24 3.96 31.85 4.06L31.85 4.06L31.85 4.06Q31.46 4.16 31.19 4.27L31.19 4.27L31.19 4.27Q30.87 4.41 30.65 4.56L30.65 4.56L30.65 3.68L30.65 3.68Q30.98 3.56 31.35 3.44L31.35 3.44L31.35 3.44Q31.67 3.35 32.08 3.27L32.08 3.27L32.08 3.27Q32.49 3.19 32.94 3.19ZM32.20 9.93L32.20 9.93L32.20 9.93Q32.97 9.93 33.41 9.65L33.41 9.65L33.41 9.65Q33.85 9.38 34.07 8.97L34.07 8.97L34.07 8.97Q34.29 8.55 34.34 8.09L34.34 8.09L34.34 8.09Q34.38 7.62 34.38 7.21L34.38 7.21L34.38 6.92L33.59 6.92L33.59 6.92Q33.31 6.92 32.83 6.96L32.83 6.96L32.83 6.96Q32.35 7.01 31.90 7.17L31.90 7.17L31.90 7.17Q31.44 7.34 31.12 7.64L31.12 7.64L31.12 7.64Q30.79 7.94 30.79 8.46L30.79 8.46L30.79 8.46Q30.79 9.24 31.19 9.58L31.19 9.58L31.19 9.58Q31.58 9.93 32.20 9.93ZM38.32 3.36L38.32 10.50L37.44 10.50L37.44 3.36L38.32 3.36ZM38.47 0.97L38.47 0.97L38.47 0.97Q38.47 1.20 38.30 1.37L38.30 1.37L38.30 1.37Q38.14 1.54 37.90 1.54L37.90 1.54L37.90 1.54Q37.66 1.54 37.48 1.37L37.48 1.37L37.48 1.37Q37.30 1.20 37.30 0.97L37.30 0.97L37.30 0.97Q37.30 0.73 37.48 0.55L37.48 0.55L37.48 0.55Q37.66 0.36 37.90 0.36L37.90 0.36L37.90 0.36Q38.14 0.36 38.30 0.55L38.30 0.55L38.30 0.55Q38.47 0.73 38.47 0.97Z"></path></g><!----><g data-v-d3f97b9e="" id="4ceeb298-8c08-4e88-9853-b2b366dc0d2c" transform="matrix(1.071544477674696,0,0,1.071544477674696,-18.17722222139564,-1.7966893194719802)" stroke="none" fill="white"><path d="M50 28.651c4.166 0 7.221-.995 8.332-1.936l6.072-13.256c0-3.433-6.449-6.216-14.404-6.216s-14.403 2.783-14.403 6.216l6.14 13.312c1.166.924 4.18 1.88 8.263 1.88z"></path><path d="M50 4.512c8.516 0 17.137 3.073 17.137 8.947v.595l-5.893 12.863c.699.944 1.395 1.875 2.082 2.797 8.877 11.889 16.543 22.156 16.542 35.904 0 16.47-13.399 29.868-29.868 29.868S20.132 82.088 20.132 65.618c0-13.354 7.623-23.66 16.449-35.594.741-1.002 1.49-2.016 2.244-3.043l-5.96-12.923v-.6c0-5.873 8.62-8.946 17.135-8.946m0-2.732c-9.568 0-19.866 3.655-19.866 11.679v.6c0 .395.085.785.251 1.144l5.285 11.458-1.237 1.675-.048.064C25.271 40.723 17.4 51.364 17.4 65.618c0 17.976 14.624 32.601 32.6 32.601 17.977 0 32.6-14.625 32.6-32.601.002-14.656-7.916-25.26-17.084-37.539l-.062-.083-1.053-1.412L69.62 15.19a2.74 2.74 0 0 0 .248-1.138v-.595C69.867 5.435 59.568 1.78 50 1.78z"></path><path d="M59 28.473c-1.979 1.317-5.499 1.999-9 1.999-3.455 0-6.929-.665-8.922-1.948-9.472 12.914-18.215 23.537-18.215 37.094 0 14.473 11.33 26.295 25.603 27.091v-8.375l-4.269-3.98v-4.109l5.8 5.009 5.805-5.009v4.109l-4.268 3.98v8.375c14.272-.796 25.603-12.619 25.603-27.091 0-13.893-8.67-24.372-18.137-37.145zM42.625 48.188l6.06 5.105v5.616s-4.735-4.181-5.663-5.106c-.926-.927-.397-5.615-.397-5.615zm5.988 28.441s-5.003-4.443-5.663-5.104c-.658-.66-.396-5.616-.396-5.616l6.06 5.104-.001 5.616zm.093-8.774s-4.748-4.189-5.663-5.104c-.913-.914-.396-5.615-.396-5.615l6.06 5.104-.001 5.615zm-2.302-21.044l3.594-6.829 3.598 6.829-3.598 2.908-3.594-2.908zM56.9 71.525c-1.051.949-5.662 5.104-5.662 5.104v-5.615l6.059-5.104c0-.001.656 4.666-.397 5.615zm.094-8.773c-.824.824-5.662 5.104-5.662 5.104v-5.613l6.059-5.104c0-.002.427 4.789-.397 5.613zm-.021-8.949c-.938.848-5.662 5.106-5.662 5.106v-5.616l6.06-5.105c-.002 0 .543 4.766-.398 5.615z"></path></g><!----><g data-v-d3f97b9e="" id="24e8a6d1-3929-41a4-abe1-64a3c116543c" fill="white" transform="matrix(0.6856954262463137,0,0,0.6856954262463137,88.78129689671289,56.75665927768045)"><path d="M7.28 9.34L7.28 9.34L7.28 9.34Q7.73 9.34 7.99 9.59L7.99 9.59L7.99 9.59Q8.25 9.84 8.25 10.29L8.25 10.29L8.25 10.29Q8.25 10.40 8.23 10.52L8.23 10.52L8.23 10.52Q8.22 10.64 8.18 10.72L8.18 10.72L8.18 10.72Q7.99 10.70 7.77 10.68L7.77 10.68L7.77 10.68Q7.55 10.65 7.24 10.65L7.24 10.65L7.24 10.65Q6.61 10.65 5.98 10.77L5.98 10.77L5.98 10.77Q5.35 10.88 4.77 10.95L4.77 10.95L4.77 10.95Q4.14 12.43 3.74 13.73L3.74 13.73L3.74 13.73Q3.33 15.04 3.11 16.31L3.11 16.31L3.11 16.31Q2.63 16.20 2.27 15.90L2.27 15.90L2.27 15.90Q1.90 15.61 1.58 15.08L1.58 15.08L1.58 15.08Q1.68 14.85 1.82 14.54L1.82 14.54L1.82 14.54Q1.96 14.22 2.16 13.74L2.16 13.74L2.16 13.74Q2.35 13.26 2.63 12.56L2.63 12.56L2.63 12.56Q2.90 11.87 3.28 10.91L3.28 10.91L3.28 10.91Q2.69 10.71 2.51 10.22L2.51 10.22L2.51 10.22Q2.58 10.15 2.90 10.06L2.90 10.06L2.90 10.06Q3.22 9.97 3.68 9.86L3.68 9.86L3.68 9.86Q3.89 9.31 4.05 8.88L4.05 8.88L4.05 8.88Q4.20 8.46 4.33 8.07L4.33 8.07L4.33 8.07Q4.45 7.69 4.56 7.32L4.56 7.32L4.56 7.32Q4.66 6.94 4.75 6.52L4.75 6.52L4.68 6.52L4.68 6.52Q4.14 6.52 3.81 6.27L3.81 6.27L3.81 6.27Q3.49 6.02 3.49 5.61L3.49 5.61L3.49 5.61Q3.49 5.50 3.52 5.35L3.52 5.35L3.52 5.35Q3.56 5.19 3.61 5.08L3.61 5.08L3.61 5.08Q3.88 5.12 4.14 5.14L4.14 5.14L4.14 5.14Q4.40 5.15 4.82 5.15L4.82 5.15L4.82 5.15Q5.70 5.15 6.47 5.10L6.47 5.10L6.47 5.10Q7.24 5.05 7.86 5.00L7.86 5.00L7.86 5.00Q8.48 4.94 8.93 4.89L8.93 4.89L8.93 4.89Q9.38 4.84 9.62 4.84L9.62 4.84L9.62 4.84Q9.94 4.84 10.19 5.18L10.19 5.18L10.19 5.18Q10.44 5.52 10.58 6.13L10.58 6.13L10.58 6.13Q10.14 6.09 9.86 6.08L9.86 6.08L9.86 6.08Q9.59 6.06 9.38 6.06L9.38 6.06L9.38 6.06Q8.67 6.06 8.07 6.13L8.07 6.13L8.07 6.13Q7.48 6.19 6.94 6.27L6.94 6.27L6.94 6.27Q6.86 6.40 6.75 6.59L6.75 6.59L6.75 6.59Q6.65 6.79 6.48 7.15L6.48 7.15L6.48 7.15Q6.31 7.50 6.05 8.08L6.05 8.08L6.05 8.08Q5.80 8.65 5.40 9.53L5.40 9.53L5.40 9.53Q5.95 9.45 6.45 9.39L6.45 9.39L6.45 9.39Q6.94 9.34 7.28 9.34ZM25.65 7.46L25.65 7.46L25.65 7.46Q25.65 8.13 25.35 8.73L25.35 8.73L25.35 8.73Q25.05 9.32 24.51 9.79L24.51 9.79L24.51 9.79Q23.98 10.26 23.27 10.58L23.27 10.58L23.27 10.58Q22.55 10.91 21.71 11.02L21.71 11.02L21.71 11.02Q21.92 11.65 22.23 12.31L22.23 12.31L22.23 12.31Q22.53 12.98 22.88 13.59L22.88 13.59L22.88 13.59Q23.23 14.21 23.60 14.73L23.60 14.73L23.60 14.73Q23.98 15.25 24.35 15.58L24.35 15.58L24.35 15.58Q24.28 15.72 24.14 15.86L24.14 15.86L24.14 15.86Q24.01 16.00 23.84 16.12L23.84 16.12L23.84 16.12Q23.66 16.24 23.47 16.32L23.47 16.32L23.47 16.32Q23.28 16.39 23.11 16.39L23.11 16.39L23.11 16.39Q22.81 16.39 22.53 16.10L22.53 16.10L22.53 16.10Q22.25 15.81 21.96 15.17L21.96 15.17L21.96 15.17Q21.67 14.53 21.36 13.52L21.36 13.52L21.36 13.52Q21.04 12.50 20.66 11.07L20.66 11.07L20.66 11.07Q20.51 11.07 20.36 11.07L20.36 11.07L20.36 11.07Q20.20 11.07 20.12 11.05L20.12 11.05L20.12 11.05Q20.02 10.99 19.91 10.85L19.91 10.85L19.91 10.85Q19.53 11.66 19.24 12.38L19.24 12.38L19.24 12.38Q18.94 13.09 18.71 13.76L18.71 13.76L18.71 13.76Q18.48 14.42 18.30 15.04L18.30 15.04L18.30 15.04Q18.13 15.67 18.00 16.31L18.00 16.31L18.00 16.31Q17.53 16.20 17.18 15.90L17.18 15.90L17.18 15.90Q16.83 15.61 16.52 15.08L16.52 15.08L16.52 15.08Q16.58 14.95 16.64 14.83L16.64 14.83L16.64 14.83Q16.70 14.71 16.80 14.50L16.80 14.50L16.80 14.50Q16.90 14.28 17.05 13.94L17.05 13.94L17.05 13.94Q17.19 13.61 17.44 13.05L17.44 13.05L17.44 13.05Q17.68 12.49 18.02 11.68L18.02 11.68L18.02 11.68Q18.37 10.86 18.86 9.70L18.86 9.70L18.86 9.70Q19.08 9.18 19.24 8.79L19.24 8.79L19.24 8.79Q19.40 8.40 19.53 8.04L19.53 8.04L19.53 8.04Q19.66 7.69 19.76 7.33L19.76 7.33L19.76 7.33Q19.87 6.97 19.98 6.51L19.98 6.51L19.98 6.51Q19.33 6.73 18.78 7.01L18.78 7.01L18.78 7.01Q18.23 7.28 17.86 7.59L17.86 7.59L17.86 7.59Q17.74 7.50 17.61 7.34L17.61 7.34L17.61 7.34Q17.47 7.17 17.36 6.96L17.36 6.96L17.36 6.96Q17.25 6.76 17.16 6.55L17.16 6.55L17.16 6.55Q17.08 6.34 17.07 6.17L17.07 6.17L17.07 6.17Q17.49 5.89 18.09 5.66L18.09 5.66L18.09 5.66Q18.70 5.42 19.39 5.24L19.39 5.24L19.39 5.24Q20.08 5.07 20.79 4.97L20.79 4.97L20.79 4.97Q21.50 4.87 22.12 4.87L22.12 4.87L22.12 4.87Q23.80 4.87 24.72 5.56L24.72 5.56L24.72 5.56Q25.65 6.26 25.65 7.46ZM22.06 6.02L22.23 6.29L22.23 6.29Q22.13 6.41 21.92 6.79L21.92 6.79L21.92 6.79Q21.71 7.17 21.44 7.69L21.44 7.69L21.44 7.69Q21.17 8.22 20.87 8.83L20.87 8.83L20.87 8.83Q20.57 9.45 20.29 10.05L20.29 10.05L20.29 10.05Q21.34 10.05 22.22 9.86L22.22 9.86L22.22 9.86Q23.10 9.66 23.74 9.30L23.74 9.30L23.74 9.30Q24.39 8.95 24.75 8.46L24.75 8.46L24.75 8.46Q25.10 7.98 25.10 7.39L25.10 7.39L25.10 7.39Q25.10 6.69 24.60 6.32L24.60 6.32L24.60 6.32Q24.09 5.95 23.04 5.95L23.04 5.95L23.04 5.95Q22.81 5.95 22.57 5.97L22.57 5.97L22.57 5.97Q22.33 5.99 22.06 6.02L22.06 6.02ZM38.47 9.21L38.47 9.21L38.47 9.21Q38.93 9.21 39.19 9.46L39.19 9.46L39.19 9.46Q39.45 9.72 39.45 10.16L39.45 10.16L39.45 10.16Q39.45 10.28 39.43 10.39L39.43 10.39L39.43 10.39Q39.41 10.51 39.38 10.60L39.38 10.60L39.38 10.60Q39.20 10.57 38.98 10.55L38.98 10.55L38.98 10.55Q38.75 10.53 38.44 10.53L38.44 10.53L38.44 10.53Q37.84 10.53 37.23 10.63L37.23 10.63L37.23 10.63Q36.61 10.74 36.05 10.81L36.05 10.81L36.05 10.81Q35.73 11.55 35.46 12.24L35.46 12.24L35.46 12.24Q35.20 12.94 35.01 13.51L35.01 13.51L35.01 13.51Q34.82 14.08 34.71 14.50L34.71 14.50L34.71 14.50Q34.61 14.92 34.59 15.13L34.59 15.13L34.59 15.13Q35.73 14.90 36.88 14.73L36.88 14.73L36.88 14.73Q38.04 14.56 39.31 14.48L39.31 14.48L39.31 14.48Q39.47 14.71 39.57 14.99L39.57 14.99L39.57 14.99Q39.68 15.27 39.68 15.60L39.68 15.60L39.68 15.60Q39.68 15.68 39.68 15.78L39.68 15.78L39.68 15.78Q39.68 15.88 39.65 15.97L39.65 15.97L39.65 15.97Q39.26 15.96 38.82 15.95L38.82 15.95L38.82 15.95Q38.39 15.95 37.69 15.95L37.69 15.95L37.69 15.95Q37.23 15.95 36.81 15.97L36.81 15.97L36.81 15.97Q36.40 15.99 35.98 16.03L35.98 16.03L35.98 16.03Q35.56 16.07 35.09 16.14L35.09 16.14L35.09 16.14Q34.62 16.21 34.03 16.31L34.03 16.31L34.03 16.31Q33.39 16.06 32.79 15.08L32.79 15.08L32.79 15.08Q33.03 14.57 33.45 13.54L33.45 13.54L33.45 13.54Q33.88 12.52 34.54 10.79L34.54 10.79L34.54 10.79Q33.91 10.60 33.71 10.09L33.71 10.09L33.71 10.09Q33.78 10.02 34.12 9.92L34.12 9.92L34.12 9.92Q34.45 9.81 34.94 9.70L34.94 9.70L34.94 9.70Q35.15 9.16 35.30 8.75L35.30 8.75L35.30 8.75Q35.45 8.34 35.56 7.99L35.56 7.99L35.56 7.99Q35.67 7.63 35.76 7.29L35.76 7.29L35.76 7.29Q35.85 6.94 35.94 6.54L35.94 6.54L35.94 6.54Q35.45 6.51 35.17 6.27L35.17 6.27L35.17 6.27Q34.89 6.02 34.89 5.63L34.89 5.63L34.89 5.63Q34.89 5.52 34.92 5.36L34.92 5.36L34.92 5.36Q34.96 5.21 35 5.10L35 5.10L35 5.10Q35.28 5.14 35.54 5.15L35.54 5.15L35.54 5.15Q35.80 5.17 36.22 5.17L36.22 5.17L36.22 5.17Q37.10 5.17 37.87 5.12L37.87 5.12L37.87 5.12Q38.64 5.07 39.26 5.01L39.26 5.01L39.26 5.01Q39.89 4.96 40.33 4.91L40.33 4.91L40.33 4.91Q40.78 4.86 41.02 4.86L41.02 4.86L41.02 4.86Q41.34 4.86 41.59 5.19L41.59 5.19L41.59 5.19Q41.85 5.53 41.97 6.15L41.97 6.15L41.97 6.15Q41.54 6.10 41.27 6.09L41.27 6.09L41.27 6.09Q40.99 6.08 40.78 6.08L40.78 6.08L40.78 6.08Q40.01 6.08 39.38 6.15L39.38 6.15L39.38 6.15Q38.74 6.23 38.15 6.31L38.15 6.31L38.15 6.31Q38.07 6.44 37.96 6.64L37.96 6.64L37.96 6.64Q37.86 6.83 37.69 7.18L37.69 7.18L37.69 7.18Q37.52 7.53 37.27 8.06L37.27 8.06L37.27 8.06Q37.03 8.60 36.68 9.39L36.68 9.39L36.68 9.39Q37.21 9.31 37.68 9.26L37.68 9.26L37.68 9.26Q38.15 9.21 38.47 9.21ZM57.34 5.74L57.34 5.74L57.34 5.74Q57.39 5.98 57.41 6.07L57.41 6.07L57.41 6.07Q57.43 6.16 57.43 6.31L57.43 6.31L57.43 6.31Q57.43 6.78 57.23 7.18L57.23 7.18L57.23 7.18Q57.02 7.57 56.67 7.74L56.67 7.74L56.67 7.74Q56.39 7.36 55.99 7.09L55.99 7.09L55.99 7.09Q55.58 6.82 55.10 6.64L55.10 6.64L55.10 6.64Q54.61 6.47 54.10 6.38L54.10 6.38L54.10 6.38Q53.58 6.30 53.09 6.30L53.09 6.30L53.09 6.30Q52.60 6.30 52.17 6.38L52.17 6.38L52.17 6.38Q51.74 6.45 51.41 6.59L51.41 6.59L51.41 6.59Q51.09 6.72 50.90 6.92L50.90 6.92L50.90 6.92Q50.71 7.11 50.71 7.36L50.71 7.36L50.71 7.36Q50.75 7.67 51.09 7.99L51.09 7.99L51.09 7.99Q51.42 8.30 51.91 8.60L51.91 8.60L51.91 8.60Q52.40 8.90 53.00 9.20L53.00 9.20L53.00 9.20Q53.59 9.49 54.17 9.76L54.17 9.76L54.17 9.76Q54.88 10.09 55.40 10.38L55.40 10.38L55.40 10.38Q55.92 10.67 56.25 11.01L56.25 11.01L56.25 11.01Q56.59 11.35 56.76 11.79L56.76 11.79L56.76 11.79Q56.92 12.22 56.92 12.84L56.92 12.84L56.92 12.84Q56.92 13.55 56.69 14.18L56.69 14.18L56.69 14.18Q56.45 14.80 55.99 15.26L55.99 15.26L55.99 15.26Q55.54 15.72 54.89 15.98L54.89 15.98L54.89 15.98Q54.25 16.24 53.45 16.24L53.45 16.24L53.45 16.24Q52.67 16.24 51.76 16.00L51.76 16.00L51.76 16.00Q50.85 15.76 50.06 15.35L50.06 15.35L50.06 15.35Q49.27 14.94 48.74 14.40L48.74 14.40L48.74 14.40Q48.22 13.86 48.22 13.26L48.22 13.26L48.22 13.26Q48.22 12.98 48.38 12.54L48.38 12.54L48.38 12.54Q48.54 12.11 48.96 11.63L48.96 11.63L48.96 11.63Q49 12.05 49.41 12.63L49.41 12.63L49.41 12.63Q49.83 13.20 50.65 13.69L50.65 13.69L50.65 13.69Q51.42 14.14 52.24 14.34L52.24 14.34L52.24 14.34Q53.06 14.55 53.77 14.55L53.77 14.55L53.77 14.55Q54.56 14.55 55.05 14.35L55.05 14.35L55.05 14.35Q55.54 14.15 55.82 13.88L55.82 13.88L55.82 13.88Q56.10 13.61 56.21 13.33L56.21 13.33L56.21 13.33Q56.32 13.05 56.34 12.88L56.34 12.88L56.34 12.88Q56.32 12.60 56.08 12.34L56.08 12.34L56.08 12.34Q55.83 12.08 55.42 11.84L55.42 11.84L55.42 11.84Q55.01 11.59 54.46 11.34L54.46 11.34L54.46 11.34Q53.91 11.09 53.33 10.84L53.33 10.84L53.33 10.84Q52.44 10.44 51.81 10.10L51.81 10.10L51.81 10.10Q51.17 9.76 50.76 9.40L50.76 9.40L50.76 9.40Q50.34 9.04 50.16 8.65L50.16 8.65L50.16 8.65Q49.97 8.26 49.97 7.76L49.97 7.76L49.97 7.76Q49.97 6.97 50.44 6.27L50.44 6.27L50.44 6.27Q50.92 5.57 51.81 5.21L51.81 5.21L51.81 5.21Q52.26 5.01 52.77 4.93L52.77 4.93L52.77 4.93Q53.28 4.84 53.77 4.84L53.77 4.84L53.77 4.84Q54.70 4.84 55.58 5.10L55.58 5.10L55.58 5.10Q56.46 5.35 57.34 5.74ZM70.50 14.36L70.50 14.36L70.50 14.36Q70.50 13.78 70.70 12.85L70.70 12.85L70.70 12.85Q70.90 11.93 71.22 10.88L71.22 10.88L71.22 10.88Q70.29 10.95 69.36 11.06L69.36 11.06L69.36 11.06Q68.43 11.17 67.75 11.19L67.75 11.19L67.75 11.19Q67.12 12.66 66.74 13.89L66.74 13.89L66.74 13.89Q66.37 15.13 66.16 16.31L66.16 16.31L66.16 16.31Q65.63 16.18 65.28 15.87L65.28 15.87L65.28 15.87Q64.93 15.55 64.64 15.08L64.64 15.08L64.64 15.08Q64.75 14.85 64.90 14.50L64.90 14.50L64.90 14.50Q65.04 14.15 65.25 13.66L65.25 13.66L65.25 13.66Q65.45 13.16 65.71 12.50L65.71 12.50L65.71 12.50Q65.97 11.83 66.30 10.95L66.30 10.95L66.30 10.95Q65.84 10.75 65.69 10.40L65.69 10.40L65.69 10.40Q65.76 10.35 66.00 10.28L66.00 10.28L66.00 10.28Q66.25 10.22 66.61 10.15L66.61 10.15L66.79 9.70L66.79 9.70Q67.09 8.95 67.28 8.43L67.28 8.43L67.28 8.43Q67.47 7.91 67.60 7.41L67.60 7.41L67.60 7.41Q67.73 6.92 67.85 6.31L67.85 6.31L67.85 6.31Q67.97 5.71 68.14 4.79L68.14 4.79L68.14 4.79Q68.73 4.90 69.21 5.31L69.21 5.31L69.21 5.31Q69.69 5.71 70.04 6.29L70.04 6.29L70.04 6.29Q69.92 6.45 69.73 6.79L69.73 6.79L69.73 6.79Q69.55 7.13 69.33 7.59L69.33 7.59L69.33 7.59Q69.12 8.06 68.87 8.64L68.87 8.64L68.87 8.64Q68.61 9.23 68.32 9.87L68.32 9.87L68.32 9.87Q69.19 9.76 70.08 9.66L70.08 9.66L70.08 9.66Q70.97 9.56 71.65 9.52L71.65 9.52L71.65 9.52Q71.90 8.79 72.18 8.10L72.18 8.10L72.18 8.10Q72.45 7.41 72.72 6.83L72.72 6.83L72.72 6.83Q72.98 6.26 73.23 5.82L73.23 5.82L73.23 5.82Q73.47 5.39 73.67 5.18L73.67 5.18L73.67 5.18Q73.81 5.19 74.04 5.29L74.04 5.29L74.04 5.29Q74.27 5.38 74.51 5.50L74.51 5.50L74.51 5.50Q74.75 5.63 74.94 5.78L74.94 5.78L74.94 5.78Q75.14 5.92 75.21 6.05L75.21 6.05L75.21 6.05Q74.96 6.29 74.70 6.66L74.70 6.66L74.70 6.66Q74.45 7.04 74.21 7.53L74.21 7.53L74.21 7.53Q73.96 8.02 73.72 8.60L73.72 8.60L73.72 8.60Q73.49 9.17 73.28 9.79L73.28 9.79L73.28 9.79Q73.56 10.04 73.56 10.42L73.56 10.42L73.56 10.42Q73.56 10.68 73.44 10.91L73.44 10.91L73.44 10.91Q73.32 10.88 73.19 10.87L73.19 10.87L73.19 10.87Q73.07 10.86 72.93 10.85L72.93 10.85L72.93 10.85Q72.69 11.61 72.49 12.35L72.49 12.35L72.49 12.35Q72.30 13.09 72.16 13.76L72.16 13.76L72.16 13.76Q72.03 14.43 71.95 14.99L71.95 14.99L71.95 14.99Q71.88 15.55 71.88 15.93L71.88 15.93L71.88 15.93Q71.88 16.07 71.88 16.16L71.88 16.16L71.88 16.16Q71.89 16.24 71.90 16.30L71.90 16.30L71.90 16.30Q71.60 16.28 71.46 16.19L71.46 16.19L71.46 16.19Q71.32 16.10 71.25 16.00L71.25 16.00L71.25 16.00Q71.18 15.89 71.12 15.79L71.12 15.79L71.12 15.79Q71.06 15.68 70.94 15.62L70.94 15.62L70.94 15.62Q70.84 15.58 70.76 15.43L70.76 15.43L70.76 15.43Q70.67 15.27 70.62 15.08L70.62 15.08L70.62 15.08Q70.56 14.88 70.53 14.69L70.53 14.69L70.53 14.69Q70.50 14.49 70.50 14.36ZM92.46 16.24L92.46 16.24L92.46 16.24Q91.78 16.04 91.52 15.85L91.52 15.85L91.52 15.85Q91.27 15.65 91.27 15.36L91.27 15.36L91.27 15.36Q91.27 15.13 91.39 14.73L91.39 14.73L91.39 14.73Q91.52 14.32 91.76 13.77L91.76 13.77L91.76 13.77Q92.01 13.22 92.35 12.54L92.35 12.54L92.35 12.54Q92.69 11.87 93.13 11.10L93.13 11.10L93.13 11.10Q92.76 11.09 92.48 11.08L92.48 11.08L92.48 11.08Q92.19 11.07 92.01 11.07L92.01 11.07L92.01 11.07Q92.09 10.86 92.48 10.71L92.48 10.71L92.48 10.71Q92.88 10.56 93.52 10.44L93.52 10.44L93.52 10.44Q94.07 9.53 94.69 8.71L94.69 8.71L94.69 8.71Q95.31 7.88 95.94 7.19L95.94 7.19L95.94 7.19Q96.57 6.50 97.20 5.97L97.20 5.97L97.20 5.97Q97.83 5.45 98.41 5.14L98.41 5.14L98.41 5.14Q98.42 5.04 98.43 4.97L98.43 4.97L98.43 4.97Q98.43 4.90 98.43 4.87L98.43 4.87L98.43 4.87Q98.63 4.87 98.96 4.97L98.96 4.97L98.96 4.97Q99.29 5.07 99.60 5.21L99.60 5.21L99.60 5.21Q99.92 5.35 100.16 5.49L100.16 5.49L100.16 5.49Q100.41 5.64 100.44 5.74L100.44 5.74L100.44 5.74Q99.97 6.55 99.53 8.17L99.53 8.17L99.53 8.17Q99.08 9.79 98.78 12.04L98.78 12.04L98.78 12.04Q98.71 12.60 98.66 13.31L98.66 13.31L98.66 13.31Q98.62 14.03 98.62 14.91L98.62 14.91L98.62 14.91Q98.62 15.22 98.62 15.54L98.62 15.54L98.62 15.54Q98.62 15.86 98.64 16.21L98.64 16.21L98.64 16.21Q98.62 16.23 98.59 16.23L98.59 16.23L98.59 16.23Q98.56 16.23 98.48 16.23L98.48 16.23L98.48 16.23Q98.28 16.23 98.02 16.16L98.02 16.16L98.02 16.16Q97.76 16.10 97.52 16.01L97.52 16.01L97.52 16.01Q97.27 15.92 97.10 15.81L97.10 15.81L97.10 15.81Q96.92 15.69 96.88 15.61L96.88 15.61L96.88 15.61Q96.87 15.43 96.87 15.25L96.87 15.25L96.87 15.25Q96.87 15.08 96.87 14.88L96.87 14.88L96.87 14.88Q96.87 14.01 96.93 13.12L96.93 13.12L96.93 13.12Q96.99 12.22 97.15 11.27L97.15 11.27L97.15 11.27Q96.95 11.26 96.63 11.23L96.63 11.23L96.63 11.23Q96.31 11.21 95.91 11.20L95.91 11.20L95.91 11.20Q95.51 11.19 95.05 11.16L95.05 11.16L95.05 11.16Q94.60 11.14 94.16 11.13L94.16 11.13L94.16 11.13Q93.83 11.76 93.53 12.38L93.53 12.38L93.53 12.38Q93.24 13.01 93.03 13.64L93.03 13.64L93.03 13.64Q92.79 14.31 92.64 14.98L92.64 14.98L92.64 14.98Q92.50 15.65 92.46 16.24ZM97.86 7.83L97.86 7.83L97.86 7.83Q97.92 7.63 97.99 7.29L97.99 7.29L97.99 7.29Q98.07 6.94 98.14 6.57L98.14 6.57L98.14 6.57Q97.79 6.69 97.36 7.03L97.36 7.03L97.36 7.03Q96.94 7.36 96.48 7.86L96.48 7.86L96.48 7.86Q96.03 8.36 95.56 8.98L95.56 8.98L95.56 8.98Q95.09 9.60 94.65 10.30L94.65 10.30L94.65 10.30Q95.83 10.21 97.33 10.18L97.33 10.18L97.33 10.18Q97.44 9.59 97.57 9.01L97.57 9.01L97.57 9.01Q97.71 8.43 97.86 7.83ZM109.06 16.24L109.06 16.24L109.06 16.24Q108.26 16.00 107.98 15.79L107.98 15.79L107.98 15.79Q107.70 15.57 107.70 15.19L107.70 15.19L107.70 15.19Q107.70 14.77 107.90 14.01L107.90 14.01L107.90 14.01Q108.09 13.24 108.41 12.31L108.41 12.31L108.41 12.31Q108.72 11.37 109.13 10.35L109.13 10.35L109.13 10.35Q109.54 9.32 109.96 8.39L109.96 8.39L109.96 8.39Q110.38 7.45 110.77 6.67L110.77 6.67L110.77 6.67Q111.17 5.89 111.48 5.46L111.48 5.46L111.38 4.87L111.38 4.87Q111.58 4.87 111.93 4.97L111.93 4.97L111.93 4.97Q112.28 5.07 112.64 5.21L112.64 5.21L112.64 5.21Q112.99 5.35 113.27 5.49L113.27 5.49L113.27 5.49Q113.54 5.64 113.57 5.74L113.57 5.74L113.57 5.74Q113.50 6.08 113.46 6.76L113.46 6.76L113.46 6.76Q113.41 7.43 113.41 8.20L113.41 8.20L113.41 8.20Q113.41 9.73 113.53 11.19L113.53 11.19L113.53 11.19Q113.65 12.66 114.09 14.17L114.09 14.17L114.09 14.17Q114.31 13.05 114.57 11.94L114.57 11.94L114.57 11.94Q114.83 10.82 115.11 9.81L115.11 9.81L115.11 9.81Q115.39 8.79 115.67 7.92L115.67 7.92L115.67 7.92Q115.95 7.06 116.21 6.40L116.21 6.40L116.21 6.40Q116.47 5.75 116.69 5.38L116.69 5.38L116.69 5.38Q116.91 5.01 117.10 4.98L117.10 4.98L117.10 4.98Q117.25 5.01 117.43 5.10L117.43 5.10L117.43 5.10Q117.61 5.19 117.78 5.32L117.78 5.32L117.78 5.32Q117.95 5.45 118.09 5.60L118.09 5.60L118.09 5.60Q118.23 5.75 118.31 5.91L118.31 5.91L118.31 5.91Q117.87 6.09 117.42 6.76L117.42 6.76L117.42 6.76Q116.98 7.43 116.58 8.39L116.58 8.39L116.58 8.39Q116.19 9.35 115.84 10.47L115.84 10.47L115.84 10.47Q115.50 11.59 115.24 12.68L115.24 12.68L115.24 12.68Q114.98 13.76 114.83 14.69L114.83 14.69L114.83 14.69Q114.69 15.61 114.67 16.17L114.67 16.17L114.67 16.17Q114.67 16.20 114.69 16.21L114.69 16.21L114.69 16.21Q114.65 16.23 114.60 16.23L114.60 16.23L114.60 16.23Q114.55 16.23 114.51 16.23L114.51 16.23L114.51 16.23Q113.86 16.23 113.36 16.07L113.36 16.07L113.36 16.07Q112.87 15.90 112.71 15.61L112.71 15.61L112.71 15.61Q112.42 14.43 112.22 13.34L112.22 13.34L112.22 13.34Q112.03 12.25 111.89 11.16L111.89 11.16L111.89 11.16Q111.76 10.07 111.68 8.95L111.68 8.95L111.68 8.95Q111.61 7.84 111.57 6.62L111.57 6.62L111.57 6.62Q111.30 7.04 111.01 7.72L111.01 7.72L111.01 7.72Q110.71 8.40 110.43 9.21L110.43 9.21L110.43 9.21Q110.15 10.02 109.89 10.92L109.89 10.92L109.89 10.92Q109.63 11.82 109.44 12.67L109.44 12.67L109.44 12.67Q109.24 13.52 109.13 14.29L109.13 14.29L109.13 14.29Q109.02 15.05 109.02 15.61L109.02 15.61L109.02 15.61Q109.02 15.90 109.02 16.03L109.02 16.03L109.02 16.03Q109.03 16.16 109.06 16.24ZM125.31 14.45L125.31 14.45L125.31 14.45Q125.52 13.99 125.82 13.26L125.82 13.26L125.82 13.26Q126.11 12.53 126.43 11.68L126.43 11.68L126.43 11.68Q126.76 10.84 127.09 9.95L127.09 9.95L127.09 9.95Q127.43 9.06 127.72 8.26L127.72 8.26L127.72 8.26Q128.02 7.46 128.23 6.83L128.23 6.83L128.23 6.83Q128.45 6.20 128.55 5.87L128.55 5.87L128.55 5.87Q127.67 6.23 127.04 6.97L127.04 6.97L127.04 6.97Q126.41 7.71 126.08 8.83L126.08 8.83L126.08 8.83Q125.76 8.72 125.50 8.43L125.50 8.43L125.50 8.43Q125.23 8.15 125.15 7.71L125.15 7.71L125.15 7.71Q125.29 7.07 125.67 6.54L125.67 6.54L125.67 6.54Q126.06 6.01 126.64 5.63L126.64 5.63L126.64 5.63Q127.23 5.25 128.00 5.05L128.00 5.05L128.00 5.05Q128.77 4.84 129.65 4.84L129.65 4.84L129.65 4.84Q130.77 4.84 131.71 5.17L131.71 5.17L131.71 5.17Q132.65 5.50 133.32 6.09L133.32 6.09L133.32 6.09Q133.99 6.68 134.37 7.50L134.37 7.50L134.37 7.50Q134.75 8.33 134.75 9.34L134.75 9.34L134.75 9.34Q134.75 10.71 134.25 11.96L134.25 11.96L134.25 11.96Q133.74 13.20 132.88 14.15L132.88 14.15L132.88 14.15Q132.02 15.11 130.89 15.67L130.89 15.67L130.89 15.67Q129.75 16.24 128.51 16.24L128.51 16.24L128.51 16.24Q127.36 16.24 126.54 15.79L126.54 15.79L126.54 15.79Q125.72 15.33 125.31 14.45ZM130.26 5.54L130.26 5.54L130.26 5.54Q129.56 5.54 128.93 5.74L128.93 5.74L128.93 5.74Q129.54 5.96 129.95 6.21L129.95 6.21L129.95 6.21Q130.35 6.45 130.51 6.59L130.51 6.59L130.51 6.59Q130.40 6.75 130.18 7.14L130.18 7.14L130.18 7.14Q129.96 7.53 129.67 8.09L129.67 8.09L129.67 8.09Q129.39 8.65 129.07 9.32L129.07 9.32L129.07 9.32Q128.74 9.98 128.44 10.68L128.44 10.68L128.44 10.68Q127.64 12.46 127.28 13.48L127.28 13.48L127.28 13.48Q126.92 14.50 126.92 14.90L126.92 14.90L126.92 14.90Q127.12 14.97 127.40 14.99L127.40 14.99L127.40 14.99Q127.68 15.02 128.00 15.02L128.00 15.02L128.00 15.02Q129.14 15.02 130.15 14.50L130.15 14.50L130.15 14.50Q131.17 13.97 131.93 13.09L131.93 13.09L131.93 13.09Q132.69 12.21 133.13 11.04L133.13 11.04L133.13 11.04Q133.57 9.87 133.57 8.58L133.57 8.58L133.57 8.58Q133.57 7.14 132.68 6.34L132.68 6.34L132.68 6.34Q131.78 5.54 130.26 5.54ZM158.06 14.36L158.06 14.36L158.06 14.36Q158.06 13.78 158.26 12.85L158.26 12.85L158.26 12.85Q158.45 11.93 158.77 10.88L158.77 10.88L158.77 10.88Q157.85 10.95 156.92 11.06L156.92 11.06L156.92 11.06Q155.99 11.17 155.30 11.19L155.30 11.19L155.30 11.19Q154.67 12.66 154.30 13.89L154.30 13.89L154.30 13.89Q153.93 15.13 153.72 16.31L153.72 16.31L153.72 16.31Q153.19 16.18 152.84 15.87L152.84 15.87L152.84 15.87Q152.49 15.55 152.19 15.08L152.19 15.08L152.19 15.08Q152.31 14.85 152.45 14.50L152.45 14.50L152.45 14.50Q152.60 14.15 152.80 13.66L152.80 13.66L152.80 13.66Q153.01 13.16 153.26 12.50L153.26 12.50L153.26 12.50Q153.52 11.83 153.86 10.95L153.86 10.95L153.86 10.95Q153.40 10.75 153.24 10.40L153.24 10.40L153.24 10.40Q153.31 10.35 153.56 10.28L153.56 10.28L153.56 10.28Q153.80 10.22 154.17 10.15L154.17 10.15L154.35 9.70L154.35 9.70Q154.64 8.95 154.83 8.43L154.83 8.43L154.83 8.43Q155.02 7.91 155.15 7.41L155.15 7.41L155.15 7.41Q155.29 6.92 155.41 6.31L155.41 6.31L155.41 6.31Q155.53 5.71 155.69 4.79L155.69 4.79L155.69 4.79Q156.28 4.90 156.76 5.31L156.76 5.31L156.76 5.31Q157.25 5.71 157.60 6.29L157.60 6.29L157.60 6.29Q157.47 6.45 157.29 6.79L157.29 6.79L157.29 6.79Q157.11 7.13 156.89 7.59L156.89 7.59L156.89 7.59Q156.67 8.06 156.42 8.64L156.42 8.64L156.42 8.64Q156.17 9.23 155.88 9.87L155.88 9.87L155.88 9.87Q156.74 9.76 157.63 9.66L157.63 9.66L157.63 9.66Q158.52 9.56 159.21 9.52L159.21 9.52L159.21 9.52Q159.46 8.79 159.73 8.10L159.73 8.10L159.73 8.10Q160.01 7.41 160.27 6.83L160.27 6.83L160.27 6.83Q160.54 6.26 160.78 5.82L160.78 5.82L160.78 5.82Q161.03 5.39 161.22 5.18L161.22 5.18L161.22 5.18Q161.36 5.19 161.59 5.29L161.59 5.29L161.59 5.29Q161.83 5.38 162.06 5.50L162.06 5.50L162.06 5.50Q162.30 5.63 162.50 5.78L162.50 5.78L162.50 5.78Q162.69 5.92 162.76 6.05L162.76 6.05L162.76 6.05Q162.51 6.29 162.26 6.66L162.26 6.66L162.26 6.66Q162.01 7.04 161.76 7.53L161.76 7.53L161.76 7.53Q161.52 8.02 161.28 8.60L161.28 8.60L161.28 8.60Q161.04 9.17 160.83 9.79L160.83 9.79L160.83 9.79Q161.11 10.04 161.11 10.42L161.11 10.42L161.11 10.42Q161.11 10.68 161.00 10.91L161.00 10.91L161.00 10.91Q160.87 10.88 160.75 10.87L160.75 10.87L160.75 10.87Q160.62 10.86 160.48 10.85L160.48 10.85L160.48 10.85Q160.24 11.61 160.05 12.35L160.05 12.35L160.05 12.35Q159.85 13.09 159.72 13.76L159.72 13.76L159.72 13.76Q159.59 14.43 159.51 14.99L159.51 14.99L159.51 14.99Q159.43 15.55 159.43 15.93L159.43 15.93L159.43 15.93Q159.43 16.07 159.44 16.16L159.44 16.16L159.44 16.16Q159.45 16.24 159.46 16.30L159.46 16.30L159.46 16.30Q159.15 16.28 159.01 16.19L159.01 16.19L159.01 16.19Q158.87 16.10 158.80 16.00L158.80 16.00L158.80 16.00Q158.73 15.89 158.68 15.79L158.68 15.79L158.68 15.79Q158.62 15.68 158.49 15.62L158.49 15.62L158.49 15.62Q158.40 15.58 158.31 15.43L158.31 15.43L158.31 15.43Q158.23 15.27 158.17 15.08L158.17 15.08L158.17 15.08Q158.12 14.88 158.09 14.69L158.09 14.69L158.09 14.69Q158.06 14.49 158.06 14.36ZM174.83 9.21L174.83 9.21L174.83 9.21Q175.29 9.21 175.55 9.46L175.55 9.46L175.55 9.46Q175.81 9.72 175.81 10.16L175.81 10.16L175.81 10.16Q175.81 10.28 175.79 10.39L175.79 10.39L175.79 10.39Q175.77 10.51 175.74 10.60L175.74 10.60L175.74 10.60Q175.56 10.57 175.34 10.55L175.34 10.55L175.34 10.55Q175.11 10.53 174.80 10.53L174.80 10.53L174.80 10.53Q174.20 10.53 173.59 10.63L173.59 10.63L173.59 10.63Q172.97 10.74 172.41 10.81L172.41 10.81L172.41 10.81Q172.09 11.55 171.82 12.24L171.82 12.24L171.82 12.24Q171.56 12.94 171.37 13.51L171.37 13.51L171.37 13.51Q171.18 14.08 171.07 14.50L171.07 14.50L171.07 14.50Q170.97 14.92 170.95 15.13L170.95 15.13L170.95 15.13Q172.09 14.90 173.24 14.73L173.24 14.73L173.24 14.73Q174.40 14.56 175.67 14.48L175.67 14.48L175.67 14.48Q175.83 14.71 175.93 14.99L175.93 14.99L175.93 14.99Q176.04 15.27 176.04 15.60L176.04 15.60L176.04 15.60Q176.04 15.68 176.04 15.78L176.04 15.78L176.04 15.78Q176.04 15.88 176.01 15.97L176.01 15.97L176.01 15.97Q175.62 15.96 175.18 15.95L175.18 15.95L175.18 15.95Q174.75 15.95 174.05 15.95L174.05 15.95L174.05 15.95Q173.59 15.95 173.17 15.97L173.17 15.97L173.17 15.97Q172.76 15.99 172.34 16.03L172.34 16.03L172.34 16.03Q171.92 16.07 171.45 16.14L171.45 16.14L171.45 16.14Q170.98 16.21 170.39 16.31L170.39 16.31L170.39 16.31Q169.75 16.06 169.15 15.08L169.15 15.08L169.15 15.08Q169.39 14.57 169.81 13.54L169.81 13.54L169.81 13.54Q170.24 12.52 170.90 10.79L170.90 10.79L170.90 10.79Q170.27 10.60 170.07 10.09L170.07 10.09L170.07 10.09Q170.14 10.02 170.48 9.92L170.48 9.92L170.48 9.92Q170.81 9.81 171.30 9.70L171.30 9.70L171.30 9.70Q171.51 9.16 171.66 8.75L171.66 8.75L171.66 8.75Q171.81 8.34 171.92 7.99L171.92 7.99L171.92 7.99Q172.03 7.63 172.12 7.29L172.12 7.29L172.12 7.29Q172.21 6.94 172.30 6.54L172.30 6.54L172.30 6.54Q171.81 6.51 171.53 6.27L171.53 6.27L171.53 6.27Q171.25 6.02 171.25 5.63L171.25 5.63L171.25 5.63Q171.25 5.52 171.28 5.36L171.28 5.36L171.28 5.36Q171.32 5.21 171.36 5.10L171.36 5.10L171.36 5.10Q171.64 5.14 171.90 5.15L171.90 5.15L171.90 5.15Q172.16 5.17 172.58 5.17L172.58 5.17L172.58 5.17Q173.46 5.17 174.23 5.12L174.23 5.12L174.23 5.12Q175.00 5.07 175.62 5.01L175.62 5.01L175.62 5.01Q176.25 4.96 176.69 4.91L176.69 4.91L176.69 4.91Q177.14 4.86 177.38 4.86L177.38 4.86L177.38 4.86Q177.70 4.86 177.95 5.19L177.95 5.19L177.95 5.19Q178.21 5.53 178.33 6.15L178.33 6.15L178.33 6.15Q177.90 6.10 177.62 6.09L177.62 6.09L177.62 6.09Q177.35 6.08 177.14 6.08L177.14 6.08L177.14 6.08Q176.37 6.08 175.73 6.15L175.73 6.15L175.73 6.15Q175.10 6.23 174.51 6.31L174.51 6.31L174.51 6.31Q174.43 6.44 174.32 6.64L174.32 6.64L174.32 6.64Q174.22 6.83 174.05 7.18L174.05 7.18L174.05 7.18Q173.88 7.53 173.63 8.06L173.63 8.06L173.63 8.06Q173.39 8.60 173.04 9.39L173.04 9.39L173.04 9.39Q173.57 9.31 174.04 9.26L174.04 9.26L174.04 9.26Q174.51 9.21 174.83 9.21ZM185.21 16.24L185.21 16.24L185.21 16.24Q184.53 16.04 184.27 15.85L184.27 15.85L184.27 15.85Q184.02 15.65 184.02 15.36L184.02 15.36L184.02 15.36Q184.02 15.13 184.14 14.73L184.14 14.73L184.14 14.73Q184.27 14.32 184.51 13.77L184.51 13.77L184.51 13.77Q184.76 13.22 185.10 12.54L185.10 12.54L185.10 12.54Q185.44 11.87 185.88 11.10L185.88 11.10L185.88 11.10Q185.51 11.09 185.23 11.08L185.23 11.08L185.23 11.08Q184.94 11.07 184.76 11.07L184.76 11.07L184.76 11.07Q184.84 10.86 185.23 10.71L185.23 10.71L185.23 10.71Q185.63 10.56 186.27 10.44L186.27 10.44L186.27 10.44Q186.82 9.53 187.44 8.71L187.44 8.71L187.44 8.71Q188.06 7.88 188.69 7.19L188.69 7.19L188.69 7.19Q189.32 6.50 189.95 5.97L189.95 5.97L189.95 5.97Q190.58 5.45 191.16 5.14L191.16 5.14L191.16 5.14Q191.17 5.04 191.18 4.97L191.18 4.97L191.18 4.97Q191.18 4.90 191.18 4.87L191.18 4.87L191.18 4.87Q191.38 4.87 191.71 4.97L191.71 4.97L191.71 4.97Q192.04 5.07 192.35 5.21L192.35 5.21L192.35 5.21Q192.67 5.35 192.91 5.49L192.91 5.49L192.91 5.49Q193.16 5.64 193.19 5.74L193.19 5.74L193.19 5.74Q192.72 6.55 192.28 8.17L192.28 8.17L192.28 8.17Q191.83 9.79 191.53 12.04L191.53 12.04L191.53 12.04Q191.46 12.60 191.41 13.31L191.41 13.31L191.41 13.31Q191.37 14.03 191.37 14.91L191.37 14.91L191.37 14.91Q191.37 15.22 191.37 15.54L191.37 15.54L191.37 15.54Q191.37 15.86 191.39 16.21L191.39 16.21L191.39 16.21Q191.37 16.23 191.34 16.23L191.34 16.23L191.34 16.23Q191.31 16.23 191.23 16.23L191.23 16.23L191.23 16.23Q191.03 16.23 190.77 16.16L190.77 16.16L190.77 16.16Q190.51 16.10 190.27 16.01L190.27 16.01L190.27 16.01Q190.02 15.92 189.85 15.81L189.85 15.81L189.85 15.81Q189.67 15.69 189.63 15.61L189.63 15.61L189.63 15.61Q189.62 15.43 189.62 15.25L189.62 15.25L189.62 15.25Q189.62 15.08 189.62 14.88L189.62 14.88L189.62 14.88Q189.62 14.01 189.68 13.12L189.68 13.12L189.68 13.12Q189.74 12.22 189.90 11.27L189.90 11.27L189.90 11.27Q189.70 11.26 189.38 11.23L189.38 11.23L189.38 11.23Q189.06 11.21 188.66 11.20L188.66 11.20L188.66 11.20Q188.26 11.19 187.80 11.16L187.80 11.16L187.80 11.16Q187.35 11.14 186.91 11.13L186.91 11.13L186.91 11.13Q186.58 11.76 186.28 12.38L186.28 12.38L186.28 12.38Q185.99 13.01 185.78 13.64L185.78 13.64L185.78 13.64Q185.54 14.31 185.39 14.98L185.39 14.98L185.39 14.98Q185.25 15.65 185.21 16.24ZM190.61 7.83L190.61 7.83L190.61 7.83Q190.67 7.63 190.74 7.29L190.74 7.29L190.74 7.29Q190.82 6.94 190.89 6.57L190.89 6.57L190.89 6.57Q190.54 6.69 190.11 7.03L190.11 7.03L190.11 7.03Q189.69 7.36 189.23 7.86L189.23 7.86L189.23 7.86Q188.78 8.36 188.31 8.98L188.31 8.98L188.31 8.98Q187.84 9.60 187.40 10.30L187.40 10.30L187.40 10.30Q188.58 10.21 190.08 10.18L190.08 10.18L190.08 10.18Q190.19 9.59 190.32 9.01L190.32 9.01L190.32 9.01Q190.46 8.43 190.61 7.83ZM205.77 14.38L205.77 14.38L205.77 14.38Q206.12 14.98 206.12 15.54L206.12 15.54L206.12 15.54Q206.12 15.67 206.10 15.77L206.10 15.77L206.10 15.77Q206.08 15.88 206.05 15.99L206.05 15.99L206.05 15.99Q205.81 15.96 205.55 15.95L205.55 15.95L205.55 15.95Q205.30 15.93 205.02 15.93L205.02 15.93L205.02 15.93Q204.68 15.93 204.34 15.95L204.34 15.95L204.34 15.95Q203.99 15.97 203.57 16.02L203.57 16.02L203.57 16.02Q203.15 16.06 202.64 16.13L202.64 16.13L202.64 16.13Q202.12 16.20 201.43 16.31L201.43 16.31L201.43 16.31Q201.11 16.20 200.79 15.87L200.79 15.87L200.79 15.87Q200.47 15.54 200.19 15.08L200.19 15.08L200.19 15.08Q200.33 14.77 200.54 14.31L200.54 14.31L200.54 14.31Q200.75 13.86 201.03 13.21L201.03 13.21L201.03 13.21Q201.31 12.56 201.65 11.68L201.65 11.68L201.65 11.68Q201.99 10.81 202.38 9.66L202.38 9.66L202.38 9.66Q202.64 8.90 202.82 8.33L202.82 8.33L202.82 8.33Q203.00 7.76 203.15 7.22L203.15 7.22L203.15 7.22Q203.29 6.68 203.43 6.09L203.43 6.09L203.43 6.09Q203.57 5.50 203.74 4.73L203.74 4.73L203.74 4.73Q204.30 4.84 204.71 5.14L204.71 5.14L204.71 5.14Q205.13 5.45 205.51 6.01L205.51 6.01L205.51 6.01Q205.39 6.19 205.21 6.59L205.21 6.59L205.21 6.59Q205.03 7 204.78 7.58L204.78 7.58L204.78 7.58Q204.54 8.16 204.25 8.90L204.25 8.90L204.25 8.90Q203.95 9.63 203.63 10.47L203.63 10.47L203.63 10.47Q203.32 11.30 203.03 12.03L203.03 12.03L203.03 12.03Q202.73 12.75 202.50 13.34L202.50 13.34L202.50 13.34Q202.27 13.93 202.13 14.35L202.13 14.35L202.13 14.35Q201.99 14.77 201.99 14.98L201.99 14.98L201.99 14.98Q202.22 14.97 202.40 14.95L202.40 14.95L202.40 14.95Q202.58 14.94 202.78 14.90L202.78 14.90L202.78 14.90Q202.97 14.87 203.20 14.82L203.20 14.82L203.20 14.82Q203.43 14.77 203.76 14.69L203.76 14.69L203.76 14.69Q204.04 14.62 204.27 14.57L204.27 14.57L204.27 14.57Q204.51 14.52 204.74 14.48L204.74 14.48L204.74 14.48Q204.97 14.45 205.22 14.43L205.22 14.43L205.22 14.43Q205.46 14.41 205.77 14.38ZM216.33 6.69L216.33 6.69L216.33 6.69Q215.77 6.69 215.47 6.38L215.47 6.38L215.47 6.38Q215.17 6.06 215.17 5.61L215.17 5.61L215.17 5.61Q215.17 5.50 215.20 5.35L215.20 5.35L215.20 5.35Q215.24 5.19 215.29 5.08L215.29 5.08L215.29 5.08Q215.47 5.17 215.83 5.20L215.83 5.20L215.83 5.20Q216.19 5.24 216.66 5.24L216.66 5.24L216.66 5.24Q217.38 5.24 218.28 5.17L218.28 5.17L218.28 5.17Q219.18 5.11 220.01 5.04L220.01 5.04L220.01 5.04Q220.84 4.97 221.47 4.91L221.47 4.91L221.47 4.91Q222.10 4.84 222.28 4.84L222.28 4.84L222.28 4.84Q222.80 4.84 223.03 5.23L223.03 5.23L223.03 5.23Q223.26 5.61 223.37 6.26L223.37 6.26L223.37 6.26Q223.01 6.23 222.65 6.21L222.65 6.21L222.65 6.21Q222.29 6.19 222.04 6.19L222.04 6.19L222.04 6.19Q221.59 6.19 221.14 6.22L221.14 6.22L221.14 6.22Q220.68 6.24 220.22 6.30L220.22 6.30L220.22 6.30Q220.02 6.71 219.79 7.26L219.79 7.26L219.79 7.26Q219.55 7.81 219.32 8.41L219.32 8.41L219.32 8.41Q219.09 9.02 218.88 9.61L218.88 9.61L218.88 9.61Q218.67 10.21 218.51 10.68L218.51 10.68L218.51 10.68Q218.20 11.61 217.97 12.39L217.97 12.39L217.97 12.39Q217.74 13.17 217.57 13.85L217.57 13.85L217.57 13.85Q217.39 14.53 217.27 15.15L217.27 15.15L217.27 15.15Q217.14 15.76 217.04 16.35L217.04 16.35L217.04 16.35Q216.10 16.21 215.47 15.18L215.47 15.18L215.47 15.18Q215.59 14.74 215.75 14.23L215.75 14.23L215.75 14.23Q215.91 13.72 216.12 13.07L216.12 13.07L216.12 13.07Q216.34 12.42 216.64 11.59L216.64 11.59L216.64 11.59Q216.93 10.77 217.31 9.72L217.31 9.72L217.31 9.72Q217.45 9.32 217.60 8.90L217.60 8.90L217.60 8.90Q217.76 8.47 217.90 8.05L217.90 8.05L217.90 8.05Q218.05 7.63 218.17 7.24L218.17 7.24L218.17 7.24Q218.29 6.85 218.37 6.52L218.37 6.52L218.37 6.52Q217.78 6.59 217.26 6.64L217.26 6.64L217.26 6.64Q216.73 6.69 216.33 6.69ZM234.25 14.36L234.25 14.36L234.25 14.36Q234.25 13.78 234.44 12.85L234.44 12.85L234.44 12.85Q234.64 11.93 234.96 10.88L234.96 10.88L234.96 10.88Q234.04 10.95 233.11 11.06L233.11 11.06L233.11 11.06Q232.18 11.17 231.49 11.19L231.49 11.19L231.49 11.19Q230.86 12.66 230.49 13.89L230.49 13.89L230.49 13.89Q230.12 15.13 229.91 16.31L229.91 16.31L229.91 16.31Q229.38 16.18 229.03 15.87L229.03 15.87L229.03 15.87Q228.68 15.55 228.38 15.08L228.38 15.08L228.38 15.08Q228.49 14.85 228.64 14.50L228.64 14.50L228.64 14.50Q228.79 14.15 228.99 13.66L228.99 13.66L228.99 13.66Q229.19 13.16 229.45 12.50L229.45 12.50L229.45 12.50Q229.71 11.83 230.05 10.95L230.05 10.95L230.05 10.95Q229.59 10.75 229.43 10.40L229.43 10.40L229.43 10.40Q229.50 10.35 229.75 10.28L229.75 10.28L229.75 10.28Q229.99 10.22 230.36 10.15L230.36 10.15L230.54 9.70L230.54 9.70Q230.83 8.95 231.02 8.43L231.02 8.43L231.02 8.43Q231.21 7.91 231.34 7.41L231.34 7.41L231.34 7.41Q231.48 6.92 231.59 6.31L231.59 6.31L231.59 6.31Q231.71 5.71 231.88 4.79L231.88 4.79L231.88 4.79Q232.47 4.90 232.95 5.31L232.95 5.31L232.95 5.31Q233.44 5.71 233.79 6.29L233.79 6.29L233.79 6.29Q233.66 6.45 233.48 6.79L233.48 6.79L233.48 6.79Q233.30 7.13 233.08 7.59L233.08 7.59L233.08 7.59Q232.86 8.06 232.61 8.64L232.61 8.64L232.61 8.64Q232.36 9.23 232.06 9.87L232.06 9.87L232.06 9.87Q232.93 9.76 233.82 9.66L233.82 9.66L233.82 9.66Q234.71 9.56 235.40 9.52L235.40 9.52L235.40 9.52Q235.65 8.79 235.92 8.10L235.92 8.10L235.92 8.10Q236.19 7.41 236.46 6.83L236.46 6.83L236.46 6.83Q236.73 6.26 236.97 5.82L236.97 5.82L236.97 5.82Q237.22 5.39 237.41 5.18L237.41 5.18L237.41 5.18Q237.55 5.19 237.78 5.29L237.78 5.29L237.78 5.29Q238.01 5.38 238.25 5.50L238.25 5.50L238.25 5.50Q238.49 5.63 238.69 5.78L238.69 5.78L238.69 5.78Q238.88 5.92 238.95 6.05L238.95 6.05L238.95 6.05Q238.70 6.29 238.45 6.66L238.45 6.66L238.45 6.66Q238.20 7.04 237.95 7.53L237.95 7.53L237.95 7.53Q237.71 8.02 237.47 8.60L237.47 8.60L237.47 8.60Q237.23 9.17 237.02 9.79L237.02 9.79L237.02 9.79Q237.30 10.04 237.30 10.42L237.30 10.42L237.30 10.42Q237.30 10.68 237.19 10.91L237.19 10.91L237.19 10.91Q237.06 10.88 236.94 10.87L236.94 10.87L236.94 10.87Q236.81 10.86 236.67 10.85L236.67 10.85L236.67 10.85Q236.43 11.61 236.24 12.35L236.24 12.35L236.24 12.35Q236.04 13.09 235.91 13.76L235.91 13.76L235.91 13.76Q235.77 14.43 235.70 14.99L235.70 14.99L235.70 14.99Q235.62 15.55 235.62 15.93L235.62 15.93L235.62 15.93Q235.62 16.07 235.63 16.16L235.63 16.16L235.63 16.16Q235.63 16.24 235.65 16.30L235.65 16.30L235.65 16.30Q235.34 16.28 235.20 16.19L235.20 16.19L235.20 16.19Q235.06 16.10 234.99 16.00L234.99 16.00L234.99 16.00Q234.92 15.89 234.86 15.79L234.86 15.79L234.86 15.79Q234.81 15.68 234.68 15.62L234.68 15.62L234.68 15.62Q234.58 15.58 234.50 15.43L234.50 15.43L234.50 15.43Q234.42 15.27 234.36 15.08L234.36 15.08L234.36 15.08Q234.30 14.88 234.28 14.69L234.28 14.69L234.28 14.69Q234.25 14.49 234.25 14.36ZM250.26 10.35L250.26 10.35L250.26 10.35Q251.31 9.20 252.15 7.91L252.15 7.91L252.15 7.91Q252.98 6.62 253.69 5.01L253.69 5.01L253.69 5.01Q254.06 5.05 254.39 5.21L254.39 5.21L254.39 5.21Q254.73 5.36 254.93 5.56L254.93 5.56L254.93 5.56Q254.16 6.48 253.53 7.24L253.53 7.24L253.53 7.24Q252.91 7.99 252.39 8.66L252.39 8.66L252.39 8.66Q251.87 9.32 251.43 9.93L251.43 9.93L251.43 9.93Q250.99 10.54 250.57 11.16L250.57 11.16L250.57 11.16Q250.36 11.87 250.18 12.60L250.18 12.60L250.18 12.60Q250.00 13.33 249.86 13.99L249.86 13.99L249.86 13.99Q249.72 14.66 249.64 15.22L249.64 15.22L249.64 15.22Q249.56 15.79 249.56 16.20L249.56 16.20L249.56 16.20Q249.41 16.20 249.07 16.14L249.07 16.14L249.07 16.14Q248.74 16.07 248.39 15.99L248.39 15.99L248.39 15.99Q248.04 15.90 247.75 15.82L247.75 15.82L247.75 15.82Q247.46 15.74 247.41 15.68L247.41 15.68L247.41 15.68Q247.63 15.30 247.85 14.75L247.85 14.75L247.85 14.75Q248.07 14.20 248.28 13.59L248.28 13.59L248.28 13.59Q248.49 12.98 248.68 12.36L248.68 12.36L248.68 12.36Q248.88 11.73 249.05 11.20L249.05 11.20L249.05 11.20Q248.70 10.11 248.37 9.15L248.37 9.15L248.37 9.15Q248.04 8.19 247.73 7.41L247.73 7.41L247.73 7.41Q247.42 6.64 247.14 6.08L247.14 6.08L247.14 6.08Q246.86 5.52 246.61 5.22L246.61 5.22L246.61 5.22Q246.75 5.17 247.04 5.11L247.04 5.11L247.04 5.11Q247.32 5.05 247.67 5.00L247.67 5.00L247.67 5.00Q248.01 4.94 248.37 4.91L248.37 4.91L248.37 4.91Q248.72 4.87 249.00 4.86L249.00 4.86L249.00 4.86Q249.00 5.21 249.07 5.71L249.07 5.71L249.07 5.71Q249.13 6.22 249.23 6.79L249.23 6.79L249.23 6.79Q249.34 7.36 249.48 7.95L249.48 7.95L249.48 7.95Q249.62 8.54 249.76 9.03L249.76 9.03L249.76 9.03Q249.90 9.52 250.03 9.88L250.03 9.88L250.03 9.88Q250.17 10.23 250.26 10.35Z"></path></g></svg>