<svg data-v-d3f97b9e="" xmlns="http://www.w3.org/2000/svg" viewBox="0 0 40.56449875649235 60"><!----><!----><!----><!----><g data-v-d3f97b9e="" id="852b5efa-26a2-4efc-97f1-6596ae87b476" transform="matrix(0.6221549180239031,0,0,0.6221549180239031,-10.82549526384523,-1.1074328014540065)" stroke="none" fill="white"><path d="M50 28.651c4.166 0 7.221-.995 8.332-1.936l6.072-13.256c0-3.433-6.449-6.216-14.404-6.216s-14.403 2.783-14.403 6.216l6.14 13.312c1.166.924 4.18 1.88 8.263 1.88z"></path><path d="M50 4.512c8.516 0 17.137 3.073 17.137 8.947v.595l-5.893 12.863c.699.944 1.395 1.875 2.082 2.797 8.877 11.889 16.543 22.156 16.542 35.904 0 16.47-13.399 29.868-29.868 29.868S20.132 82.088 20.132 65.618c0-13.354 7.623-23.66 16.449-35.594.741-1.002 1.49-2.016 2.244-3.043l-5.96-12.923v-.6c0-5.873 8.62-8.946 17.135-8.946m0-2.732c-9.568 0-19.866 3.655-19.866 11.679v.6c0 .395.085.785.251 1.144l5.285 11.458-1.237 1.675-.048.064C25.271 40.723 17.4 51.364 17.4 65.618c0 17.976 14.624 32.601 32.6 32.601 17.977 0 32.6-14.625 32.6-32.601.002-14.656-7.916-25.26-17.084-37.539l-.062-.083-1.053-1.412L69.62 15.19a2.74 2.74 0 0 0 .248-1.138v-.595C69.867 5.435 59.568 1.78 50 1.78z"></path><path d="M59 28.473c-1.979 1.317-5.499 1.999-9 1.999-3.455 0-6.929-.665-8.922-1.948-9.472 12.914-18.215 23.537-18.215 37.094 0 14.473 11.33 26.295 25.603 27.091v-8.375l-4.269-3.98v-4.109l5.8 5.009 5.805-5.009v4.109l-4.268 3.98v8.375c14.272-.796 25.603-12.619 25.603-27.091 0-13.893-8.67-24.372-18.137-37.145zM42.625 48.188l6.06 5.105v5.616s-4.735-4.181-5.663-5.106c-.926-.927-.397-5.615-.397-5.615zm5.988 28.441s-5.003-4.443-5.663-5.104c-.658-.66-.396-5.616-.396-5.616l6.06 5.104-.001 5.616zm.093-8.774s-4.748-4.189-5.663-5.104c-.913-.914-.396-5.615-.396-5.615l6.06 5.104-.001 5.615zm-2.302-21.044l3.594-6.829 3.598 6.829-3.598 2.908-3.594-2.908zM56.9 71.525c-1.051.949-5.662 5.104-5.662 5.104v-5.615l6.059-5.104c0-.001.656 4.666-.397 5.615zm.094-8.773c-.824.824-5.662 5.104-5.662 5.104v-5.613l6.059-5.104c0-.002.427 4.789-.397 5.613zm-.021-8.949c-.938.848-5.662 5.106-5.662 5.106v-5.616l6.06-5.105c-.002 0 .543 4.766-.398 5.615z"></path></g><!----></svg>